<?xml version="1.0"?>
<svg xmlns="http://www.w3.org/2000/svg" xmlns:xlink="http://www.w3.org/1999/xlink" version="1.1" id="Capa_1" x="0px" y="0px" viewBox="0 0 496 496" style="enable-background:new 0 0 496 496;" xml:space="preserve" width="512px" height="512px"><g><g>
	<g>
		<path d="M248,384c-8.824,0-16-7.176-16-16c0-8.824,7.176-16,16-16c8.824,0,16,7.176,16,16h16c0-14.864-10.24-27.288-24-30.864V320    h-16v17.136c-13.76,3.576-24,16-24,30.864c0,17.648,14.352,32,32,32c8.824,0,16,7.176,16,16c0,8.824-7.176,16-16,16    c-8.824,0-16-7.176-16-16h-16c0,14.864,10.24,27.288,24,30.864V464h16v-17.136c13.76-3.576,24-16,24-30.864    C280,398.352,265.648,384,248,384z" data-original="#000000" class="active-path" data-old_color="#000000" fill="#FFFFFF"/>
	</g>
</g><g>
	<g>
		<path d="M464,195.056V80c0-44.112-35.888-80-80-80s-80,35.888-80,80v115.056c-18.544,3.792-32,20.232-32,39.176V256h112v120    c0,4.408-3.592,8-8,8h-24.408c-4.104-53.608-48.944-96-103.592-96s-99.488,42.392-103.592,96H120c-4.408,0-8-3.592-8-8V256h112    v-21.768c0-19-13.52-35.496-32.152-39.224L144,185.44v-11.552c8.008-5.6,14.456-13.24,18.648-22.16    C179.04,150.36,192,136.736,192,120V80c0-44.112-35.888-80-80-80S32,35.888,32,80v40c0,16.736,12.96,30.36,29.352,31.728    c4.2,8.92,10.64,16.56,18.648,22.16v11.552l-47.848,9.568C13.52,198.736,0,215.232,0,234.232V256h96v120c0,13.232,10.768,24,24,24    h24.408c4.104,53.608,48.944,96,103.592,96c24.944,0,49.072-8.968,67.936-25.256l-10.456-12.112    C289.52,472.416,269.104,480,248,480c-48.52,0-88-39.48-88-88c0-48.52,39.48-88,88-88s88,39.48,88,88    c0,20.288-6.704,39.344-19.4,55.12l12.472,10.032c13.112-16.304,20.968-36.344,22.584-57.152H376c13.232,0,24-10.768,24-24V256h96    v-21.768C496,215.288,482.544,198.848,464,195.056z M167.672,133.952c0.208-1.96,0.328-3.944,0.328-5.952v-21.776    c4.76,2.776,8,7.88,8,13.776C176,126.032,172.608,131.224,167.672,133.952z M48,120c0-5.896,3.24-11,8-13.776V128    c0,2.008,0.12,3.992,0.328,5.952C51.392,131.224,48,126.032,48,120z M57.24,88.752c-3.32,0.72-6.392,2.04-9.24,3.696V80    c0-35.288,28.712-64,64-64s64,28.712,64,64v12.448c-2.848-1.664-5.92-2.984-9.24-3.704C163.664,79.072,154.688,72,144,72H80    C69.312,72,60.336,79.072,57.24,88.752z M72,128V96c0-4.408,3.592-8,8-8h64c4.408,0,8,3.592,8,8v32c0,22.056-17.944,40-40,40    C89.944,168,72,150.056,72,128z M128,181.64v7.048l-16,16l-16-16v-7.048c5.072,1.52,10.44,2.36,16,2.36S122.928,183.16,128,181.64    z M16,240v-5.768c0-11.4,8.112-21.296,19.296-23.536l50.08-10.016L112,227.312l26.632-26.632l50.08,10.016    c11.176,2.24,19.288,12.136,19.288,23.536V240H16z M320,80c0-35.288,28.712-64,64-64c35.288,0,64,28.712,64,64v12.448    c-2.48-1.448-5.152-2.576-8-3.312V80h-8c-13.336,0-25.88-5.192-35.312-14.624L384,52.688l-12.688,12.688    C361.88,74.808,349.336,80,336,80h-8v9.136c-2.848,0.744-5.52,1.864-8,3.312V80z M384,168c-22.056,0-40-17.944-40-40V95.52    c14.584-1.752,28.08-8.288,38.624-18.832L384,75.312l1.376,1.376C395.92,87.232,409.416,93.768,424,95.52V128    C424,150.056,406.056,168,384,168z M400,181.64v7.048l-16,16l-16-16v-7.048c5.072,1.52,10.44,2.36,16,2.36    S394.928,183.16,400,181.64z M416,173.888c8.008-5.6,14.456-13.24,18.648-22.16c4.848-0.408,9.36-1.856,13.352-4.184v44.296    l-32-6.4V173.888z M439.672,133.952c0.208-1.96,0.328-3.944,0.328-5.952v-21.776c4.76,2.776,8,7.88,8,13.776    C448,126.032,444.608,131.224,439.672,133.952z M328,106.224V128c0,2.008,0.12,3.992,0.328,5.952    C323.392,131.224,320,126.032,320,120C320,114.104,323.24,109,328,106.224z M320,147.544c3.992,2.328,8.504,3.776,13.352,4.184    c4.2,8.92,10.64,16.56,18.648,22.16v11.552l-32,6.4V147.544z M480,240H288v-5.768c0-11.4,8.112-21.296,19.296-23.536l50.08-10.016    L384,227.312l26.632-26.632l50.08,10.016c11.176,2.24,19.288,12.136,19.288,23.536V240z" data-original="#000000" class="active-path" data-old_color="#000000" fill="#FFFFFF"/>
	</g>
</g><g>
	<g>
		<rect x="304" y="384" width="16" height="16" data-original="#000000" class="active-path" data-old_color="#000000" fill="#FFFFFF"/>
	</g>
</g><g>
	<g>
		<rect x="176" y="384" width="16" height="16" data-original="#000000" class="active-path" data-old_color="#000000" fill="#FFFFFF"/>
	</g>
</g><g>
	<g>
		<rect x="368" y="416" width="16" height="16" data-original="#000000" class="active-path" data-old_color="#000000" fill="#FFFFFF"/>
	</g>
</g><g>
	<g>
		<rect x="400" y="416" width="16" height="16" data-original="#000000" class="active-path" data-old_color="#000000" fill="#FFFFFF"/>
	</g>
</g><g>
	<g>
		<rect x="432" y="416" width="16" height="16" data-original="#000000" class="active-path" data-old_color="#000000" fill="#FFFFFF"/>
	</g>
</g><g>
	<g>
		<rect x="48" y="416" width="16" height="16" data-original="#000000" class="active-path" data-old_color="#000000" fill="#FFFFFF"/>
	</g>
</g><g>
	<g>
		<rect x="80" y="416" width="16" height="16" data-original="#000000" class="active-path" data-old_color="#000000" fill="#FFFFFF"/>
	</g>
</g><g>
	<g>
		<rect x="112" y="416" width="16" height="16" data-original="#000000" class="active-path" data-old_color="#000000" fill="#FFFFFF"/>
	</g>
</g></g> </svg>
