<?xml version="1.0"?>
<svg xmlns="http://www.w3.org/2000/svg" height="512px" viewBox="0 0 480 480" width="512px" class=""><g><path d="m240 400c88.367188 0 160-71.632812 160-160s-71.632812-160-160-160-160 71.632812-160 160c.101562 88.324219 71.675781 159.898438 160 160zm-144-160c.042969-11.457031 1.460938-22.867188 4.21875-33.988281l66.425781 55.945312-27.777343 80.402344c-27.4375-26.992187-42.878907-63.871094-42.867188-102.359375zm176.203125-56.578125c1.132813 2.644531 3.597656 4.476563 6.457031 4.796875l85.949219 9.652344-65.761719 55.390625c-2.53125 2.132812-3.488281 5.601562-2.410156 8.730469l27.179688 78.664062-81.675782-20.417969c-1.273437-.316406-2.609375-.316406-3.882812 0l-81.675782 20.417969 27.179688-78.664062c1.078125-3.128907.121094-6.597657-2.410156-8.730469l-65.761719-55.390625 85.949219-9.652344c2.859375-.320312 5.324218-2.152344 6.457031-4.796875l32.203125-75.117187zm-115.675781 173.691406 83.472656-20.867187 83.472656 20.867187c-49.875 35.847657-117.070312 35.847657-166.945312 0zm184.605468-14.753906-27.777343-80.402344 66.425781-55.945312c12.214844 49.085937-2.492188 100.972656-38.648438 136.347656zm30.859376-159.757813-86.917969-9.761718-32.671875-76.210938c52.59375 4.605469 98.46875 37.585938 119.589844 85.972656zm-144.394532-85.972656-32.671875 76.210938-86.917969 9.761718c21.121094-48.386718 66.996094-81.367187 119.589844-85.972656zm0 0" data-original="#000000" class="active-path" data-old_color="#000000" fill="#2E9DFA"/><path d="m40 240c0 110.457031 89.542969 200 200 200s200-89.542969 200-200-89.542969-200-200-200c-110.40625.125-199.875 89.59375-200 200zm200-184c101.621094 0 184 82.378906 184 184s-82.378906 184-184 184-184-82.378906-184-184c.117188-101.574219 82.425781-183.882812 184-184zm0 0" data-original="#000000" class="active-path" data-old_color="#000000" fill="#2E9DFA"/><path d="m213.46875 287.589844 18.953125 6.316406c-.234375.675781-.378906 1.378906-.421875 2.09375v8c0 4.417969 3.582031 8 8 8s8-3.582031 8-8v-4.898438l13.46875 4.488282c2.441406.8125 5.121094.402344 7.207031-1.101563 2.085938-1.503906 3.324219-3.917969 3.324219-6.488281v-40c0-3.441406-2.203125-6.5-5.46875-7.589844l-42.53125-14.175781v-31.136719l32 10.667969v10.234375c0 4.417969 3.582031 8 8 8s8-3.582031 8-8v-16c0-3.441406-2.203125-6.5-5.46875-7.589844l-18.53125-6.175781v-10.234375c0-4.417969-3.582031-8-8-8s-8 3.582031-8 8v4.898438l-13.46875-4.488282c-2.441406-.8125-5.121094-.402344-7.207031 1.101563-2.085938 1.503906-3.324219 3.917969-3.324219 6.488281v48c0 3.441406 2.203125 6.5 5.46875 7.589844l42.53125 14.175781v23.136719l-32-10.667969v-2.234375c0-4.417969-3.582031-8-8-8s-8 3.582031-8 8v8c0 3.441406 2.203125 6.5 5.46875 7.589844zm0 0" data-original="#000000" class="active-path" data-old_color="#000000" fill="#2E9DFA"/><path d="m8 64c22.082031.027344 39.972656 17.917969 40 40 0 4.417969 3.582031 8 8 8s8-3.582031 8-8c.027344-22.082031 17.917969-39.972656 40-40 4.417969 0 8-3.582031 8-8s-3.582031-8-8-8c-22.082031-.027344-39.972656-17.917969-40-40 0-4.417969-3.582031-8-8-8s-8 3.582031-8 8c-.027344 22.082031-17.917969 39.972656-40 40-4.417969 0-8 3.582031-8 8s3.582031 8 8 8zm48-27.179688c4.738281 7.855469 11.324219 14.441407 19.179688 19.179688-7.855469 4.738281-14.441407 11.324219-19.179688 19.179688-4.738281-7.855469-11.324219-14.441407-19.179688-19.179688 7.855469-4.738281 14.441407-11.324219 19.179688-19.179688zm0 0" data-original="#000000" class="active-path" data-old_color="#000000" fill="#2E9DFA"/><path d="m424 368c-4.417969 0-8 3.582031-8 8-.027344 22.082031-17.917969 39.972656-40 40-4.417969 0-8 3.582031-8 8s3.582031 8 8 8c22.082031.027344 39.972656 17.917969 40 40 0 4.417969 3.582031 8 8 8s8-3.582031 8-8c.027344-22.082031 17.917969-39.972656 40-40 4.417969 0 8-3.582031 8-8s-3.582031-8-8-8c-22.082031-.027344-39.972656-17.917969-40-40 0-4.417969-3.582031-8-8-8zm19.179688 56c-7.855469 4.738281-14.441407 11.324219-19.179688 19.179688-4.738281-7.855469-11.324219-14.441407-19.179688-19.179688 7.855469-4.738281 14.441407-11.324219 19.179688-19.179688 4.738281 7.855469 11.324219 14.441407 19.179688 19.179688zm0 0" data-original="#000000" class="active-path" data-old_color="#000000" fill="#2E9DFA"/></g> </svg>
