<?xml version="1.0"?>
<svg xmlns="http://www.w3.org/2000/svg" xmlns:xlink="http://www.w3.org/1999/xlink" version="1.1" id="Capa_1" x="0px" y="0px" viewBox="0 0 512.001 512.001" style="enable-background:new 0 0 512.001 512.001;" xml:space="preserve" width="512px" height="512px"><g><g>
	<g>
		<path d="M455.072,297.055c-1.86-1.861-4.44-2.93-7.07-2.93c-2.64,0-5.21,1.069-7.08,2.93c-1.86,1.859-2.92,4.439-2.92,7.07    c0,2.63,1.06,5.21,2.92,7.069c1.87,1.87,4.44,2.931,7.08,2.931c2.63,0,5.21-1.061,7.07-2.931c1.859-1.859,2.93-4.439,2.93-7.069    C458.001,301.494,456.931,298.914,455.072,297.055z" data-original="#000000" class="active-path" data-old_color="#000000" fill="#FFFFFF"/>
	</g>
</g><g>
	<g>
		<path d="M447.999,340.335c-5.522,0-10,4.478-10,10v111.666c0,16.542-13.458,30-30,30h-304c-16.542,0-30-13.458-30-30v-372    c0-16.542,13.458-30,30-30h62.19c-0.848,3.142-1.308,6.442-1.308,9.849v18.151h-28.883c-16.542,0-30,13.458-30,30v310    c0,16.542,13.458,30,30,30h240c16.542,0,30-13.458,30-30v-310c0-16.542-13.458-30-30-30h-28.883V69.85    c0-3.406-0.46-6.706-1.308-9.849h62.19c16.542,0,30,13.458,30,30v163.998c0,5.522,4.478,10,10,10c5.522,0,10-4.478,10-10V90.001    c0-27.57-22.43-50-50-50h-75.501c-6.418-5.006-14.478-8-23.229-8h-12.04C292.473,13.663,275.681,0,255.999,0    c-19.683,0-36.475,13.663-41.229,32.001h-12.04c-8.751,0-16.812,2.994-23.229,8h-75.501c-27.57,0-50,22.43-50,50v372    c0,27.57,22.43,50,50,50h304c27.57,0,50-22.43,50-50V350.335C457.999,344.813,453.52,340.335,447.999,340.335z M184.882,69.85    c0-9.842,8.007-17.849,17.848-17.849h20.7c5.454,0,9.902-4.37,9.998-9.823C233.643,29.948,243.768,20,255.999,20    c12.23,0,22.355,9.948,22.571,22.178c0.096,5.453,4.544,9.823,9.998,9.823h20.7c9.841,0,17.848,8.007,17.848,17.849v18.151    H184.882V69.85z M375.999,108.001c5.514,0,10,4.486,10,10v310c0,5.514-4.486,10-10,10h-240c-5.514,0-10-4.486-10-10v-310    c0-5.514,4.486-10,10-10H375.999z" data-original="#000000" class="active-path" data-old_color="#000000" fill="#FFFFFF"/>
	</g>
</g><g>
	<g>
		<path d="M263.072,146.925c-1.86-1.86-4.44-2.92-7.07-2.92c-2.64,0-5.22,1.06-7.07,2.92c-1.87,1.87-2.93,4.439-2.93,7.08    c0,2.63,1.06,5.21,2.93,7.069c1.86,1.861,4.43,2.931,7.07,2.931c2.63,0,5.21-1.07,7.07-2.931c1.859-1.87,2.93-4.439,2.93-7.069    C266.001,151.364,264.931,148.795,263.072,146.925z" data-original="#000000" class="active-path" data-old_color="#000000" fill="#FFFFFF"/>
	</g>
</g><g>
	<g>
		<path d="M351.992,144.001h-52.994c-5.522,0-10,4.478-10,10c0,5.522,4.478,10,10,10h42.994v56H170.005v-56h41.66    c5.522,0,10-4.478,10-10c0-5.522-4.478-10-10-10h-51.66c-5.522,0-10,4.478-10,10v76c0,5.522,4.478,10,10,10h191.987    c5.522,0,10-4.478,10-10v-76C361.992,148.479,357.514,144.001,351.992,144.001z" data-original="#000000" class="active-path" data-old_color="#000000" fill="#FFFFFF"/>
	</g>
</g><g>
	<g>
		<path d="M351.993,324.001h-72c-5.522,0-10,4.478-10,10c0,5.522,4.478,10,10,10h72c5.522,0,10-4.478,10-10    C361.993,328.479,357.515,324.001,351.993,324.001z" data-original="#000000" class="active-path" data-old_color="#000000" fill="#FFFFFF"/>
	</g>
</g><g>
	<g>
		<path d="M351.993,268.001h-72c-5.522,0-10,4.478-10,10c0,5.522,4.478,10,10,10h72c5.522,0,10-4.478,10-10    C361.993,272.479,357.515,268.001,351.993,268.001z" data-original="#000000" class="active-path" data-old_color="#000000" fill="#FFFFFF"/>
	</g>
</g><g>
	<g>
		<path d="M351.993,380.001h-72c-5.522,0-10,4.478-10,10c0,5.522,4.478,10,10,10h72c5.522,0,10-4.478,10-10    C361.993,384.479,357.515,380.001,351.993,380.001z" data-original="#000000" class="active-path" data-old_color="#000000" fill="#FFFFFF"/>
	</g>
</g><g>
	<g>
		<path d="M232.005,324.001h-72c-5.522,0-10,4.478-10,10c0,5.522,4.478,10,10,10h72c5.522,0,10-4.478,10-10    C242.005,328.479,237.527,324.001,232.005,324.001z" data-original="#000000" class="active-path" data-old_color="#000000" fill="#FFFFFF"/>
	</g>
</g><g>
	<g>
		<path d="M232.005,268.001h-72c-5.522,0-10,4.478-10,10c0,5.522,4.478,10,10,10h72c5.522,0,10-4.478,10-10    C242.005,272.479,237.527,268.001,232.005,268.001z" data-original="#000000" class="active-path" data-old_color="#000000" fill="#FFFFFF"/>
	</g>
</g><g>
	<g>
		<path d="M232.005,380.001h-72c-5.522,0-10,4.478-10,10c0,5.522,4.478,10,10,10h72c5.522,0,10-4.478,10-10    C242.005,384.479,237.527,380.001,232.005,380.001z" data-original="#000000" class="active-path" data-old_color="#000000" fill="#FFFFFF"/>
	</g>
</g></g> </svg>
