<?xml version="1.0"?>
<svg xmlns="http://www.w3.org/2000/svg" height="512px" viewBox="0 0 480 480" width="512px"><g><path d="m120 184c13.253906 0 24-10.746094 24-24s-10.746094-24-24-24-24 10.746094-24 24c.015625 13.25 10.75 23.984375 24 24zm0-32c4.417969 0 8 3.582031 8 8s-3.582031 8-8 8-8-3.582031-8-8c.003906-4.417969 3.582031-7.996094 8-8zm0 0" data-original="#000000" class="active-path" data-old_color="#000000" fill="#0172D0"/><path d="m440 216v-208c0-4.417969-3.582031-8-8-8h-384c-4.417969 0-8 3.582031-8 8v24c-22.089844 0-40 17.910156-40 40s17.910156 40 40 40v360c0 4.417969 3.582031 8 8 8h384c4.417969 0 8-3.582031 8-8v-176c22.089844 0 40-17.910156 40-40s-17.910156-40-40-40zm-424-144c0-13.253906 10.746094-24 24-24s24 10.746094 24 24-10.746094 24-24 24c-13.25-.015625-23.984375-10.75-24-24zm408 392h-368v-355.390625c14.574219-6.339844 24-20.71875 24-36.609375s-9.425781-30.269531-24-36.609375v-19.390625h368v203.390625c-6.359375 2.824219-11.871094 7.257813-16 12.855469v-112.246094c0-4.417969-3.582031-8-8-8h-320c-4.417969 0-8 3.582031-8 8v320c0 4.417969 3.582031 8 8 8h320c4.417969 0 8-3.582031 8-8v-160.246094c4.128906 5.597656 9.640625 10.03125 16 12.855469zm-112-32h-64v-64h64zm-80 0h-64v-64h64zm-80 0h-64v-64h64zm16-304h64v64h-64zm80 0h64v64h-64zm80 0h64v64h-64zm-16 144h-64v-64h64zm-80 0h-64v-64h64zm-80 0h-64v-64h64zm-64 16h64v64h-64zm80 0h64v64h-64zm80 0h64v64h-64zm80 0h64v64h-64zm64-16h-64v-64h64zm-240-80h-64v-64h64zm176 176h64v64h-64zm112-88c-13.253906 0-24-10.746094-24-24s10.746094-24 24-24 24 10.746094 24 24c-.015625 13.25-10.75 23.984375-24 24zm0 0" data-original="#000000" class="active-path" data-old_color="#000000" fill="#0172D0"/><path d="m200 264c13.253906 0 24-10.746094 24-24s-10.746094-24-24-24-24 10.746094-24 24c.015625 13.25 10.75 23.984375 24 24zm0-32c4.417969 0 8 3.582031 8 8s-3.582031 8-8 8-8-3.582031-8-8c.003906-4.417969 3.582031-7.996094 8-8zm0 0" data-original="#000000" class="active-path" data-old_color="#000000" fill="#0172D0"/><path d="m280 296c-13.253906 0-24 10.746094-24 24s10.746094 24 24 24 24-10.746094 24-24c-.015625-13.25-10.75-23.984375-24-24zm0 32c-4.417969 0-8-3.582031-8-8s3.582031-8 8-8 8 3.582031 8 8c-.003906 4.417969-3.582031 7.996094-8 8zm0 0" data-original="#000000" class="active-path" data-old_color="#000000" fill="#0172D0"/><path d="m360 376c-13.253906 0-24 10.746094-24 24s10.746094 24 24 24 24-10.746094 24-24c-.015625-13.25-10.75-23.984375-24-24zm0 32c-4.417969 0-8-3.582031-8-8s3.582031-8 8-8 8 3.582031 8 8c-.003906 4.417969-3.582031 7.996094-8 8zm0 0" data-original="#000000" class="active-path" data-old_color="#000000" fill="#0172D0"/><path d="m320 96h80c4.417969 0 8-3.582031 8-8s-3.582031-8-8-8h-80c-4.417969 0-8 3.582031-8 8s3.582031 8 8 8zm0 0" data-original="#000000" class="active-path" data-old_color="#000000" fill="#0172D0"/><path d="m320 64h80c4.417969 0 8-3.582031 8-8s-3.582031-8-8-8h-80c-4.417969 0-8 3.582031-8 8s3.582031 8 8 8zm0 0" data-original="#000000" class="active-path" data-old_color="#000000" fill="#0172D0"/><path d="m112 96h176c4.417969 0 8-3.582031 8-8v-40c0-4.417969-3.582031-8-8-8h-176c-4.417969 0-8 3.582031-8 8v40c0 4.417969 3.582031 8 8 8zm8-40h160v24h-160zm0 0" data-original="#000000" class="active-path" data-old_color="#000000" fill="#0172D0"/></g> </svg>
