<?xml version="1.0"?>
<svg xmlns="http://www.w3.org/2000/svg" height="512px" viewBox="-80 -26 851 851.24775" width="512px"><g><path d="m406.988281 42.808594c-1.390625-4.449219-5.023437-7.851563-9.550781-8.953125l-29.277344-7.121094-16.195312-23.164063c-2.621094-3.359374-6.640625-5.320312-10.898438-5.320312-4.261718 0-8.277344 1.960938-10.898437 5.320312l-16.230469 23.164063-29.277344 7.121094c-4.535156 1.101562-8.160156 4.492187-9.5625 8.949219-1.394531 4.449218-.359375 9.3125 2.734375 12.804687l18.632813 21.039063-1.570313 26.90625c-.261719 4.457031 1.730469 8.742187 5.304688 11.417968 3.570312 2.679688 8.242187 3.386719 12.445312 1.886719l28.421875-10.113281 28.425782 10.128906c4.207031 1.5 8.875.789062 12.449218-1.882812 3.566406-2.679688 5.558594-6.96875 5.304688-11.421876l-1.617188-26.90625 18.636719-21.039062c3.09375-3.492188 4.128906-8.363281 2.722656-12.816406zm-44.949219 20.296875c-2.328124 2.640625-3.515624 6.101562-3.316406 9.617187l.753906 12.320313-13.9375-4.960938c-2.890624-1.050781-6.046874-1.050781-8.941406 0l-13.933594 4.960938.746094-12.320313c.203125-3.515625-.992187-6.976562-3.3125-9.617187l-7.652344-8.628907 12.65625-3.085937c3.148438-.769531 5.902344-2.660156 7.75-5.320313l8.214844-11.683593 8.210938 11.738281c1.851562 2.65625 4.609375 4.550781 7.757812 5.324219l12.65625 3.085937zm0 0" data-original="#000000" class="active-path" data-old_color="#000000" fill="#FFFFFF"/><path d="m676.875 246.734375-29.277344-7.121094-16.230468-23.167969c-2.621094-3.351562-6.640626-5.316406-10.898438-5.316406s-8.277344 1.964844-10.898438 5.316406l-16.234374 23.167969-29.273438 7.121094c-4.535156 1.101563-8.167969 4.492187-9.5625 8.945313-1.402344 4.457031-.359375 9.316406 2.738281 12.8125l18.621094 21.039062-1.527344 26.929688c-.253906 4.460937 1.738281 8.742187 5.304688 11.417968 3.574219 2.675782 8.242187 3.390625 12.445312 1.890625l28.429688-10.117187 28.421875 10.132812c4.203125 1.496094 8.875.785156 12.445312-1.890625 3.570313-2.671875 5.558594-6.964843 5.304688-11.417969l-1.609375-26.90625 18.628906-21.039062c3.09375-3.492188 4.128906-8.351562 2.734375-12.808594-1.398438-4.449218-5.023438-7.851562-9.5625-8.945312zm-35.398438 29.273437c-2.320312 2.648438-3.511718 6.105469-3.3125 9.621094l.75 12.320313-13.933593-4.957031c-2.894531-1.050782-6.050781-1.050782-8.941407 0l-13.9375 4.957031.753907-12.320313c.199219-3.515625-.996094-6.972656-3.316407-9.621094l-7.652343-8.621093 12.652343-3.082031c3.152344-.777344 5.910157-2.667969 7.761719-5.324219l8.210938-11.6875 8.203125 11.738281c1.855468 2.65625 4.613281 4.550781 7.761718 5.324219l12.652344 3.082031zm0 0" data-original="#000000" class="active-path" data-old_color="#000000" fill="#FFFFFF"/><path d="m15.453125 316.460938c-.257813 4.460937 1.734375 8.742187 5.300781 11.417968 3.574219 2.675782 8.25 3.390625 12.449219 1.890625l28.425781-10.117187 28.421875 10.132812c4.203125 1.496094 8.878907.785156 12.449219-1.890625 3.570312-2.671875 5.558594-6.964843 5.300781-11.417969l-1.609375-26.90625 18.628906-21.039062c3.097657-3.492188 4.132813-8.351562 2.738282-12.808594-1.402344-4.449218-5.023438-7.851562-9.5625-8.945312l-29.273438-7.121094-16.234375-23.167969c-2.617187-3.355469-6.640625-5.3125-10.898437-5.3125-4.257813 0-8.277344 1.957031-10.902344 5.3125l-16.234375 23.167969-29.273437 7.121094c-4.53125 1.09375-8.164063 4.496094-9.566407 8.945312-1.394531 4.457032-.351562 9.316406 2.746094 12.808594l18.628906 21.039062zm30.210937-52.148438c3.144532-.765625 5.898438-2.660156 7.753907-5.324219l8.210937-11.695312 8.207032 11.738281c1.855468 2.65625 4.613281 4.550781 7.765624 5.324219l12.648438 3.082031-7.652344 8.628906c-2.328125 2.648438-3.511718 6.097656-3.3125 9.613282l.746094 12.324218-13.933594-4.964844c-2.886718-1.039062-6.054687-1.039062-8.941406 0l-13.933594 4.964844.746094-12.324218c.203125-3.515626-.984375-6.964844-3.3125-9.613282l-7.652344-8.628906zm0 0" data-original="#000000" class="active-path" data-old_color="#000000" fill="#FFFFFF"/><path d="m633.21875 586.988281c-.082031-.078125-.109375-.191406-.203125-.269531-.089844-.078125-.546875-.421875-.8125-.648438-1.96875-1.707031-3.992187-3.3125-6.066406-4.886718-.890625-.675782-1.78125-1.332032-2.65625-2.007813-2.054688-1.464843-4.167969-2.859375-6.3125-4.195312-1.011719-.617188-2.011719-1.246094-3.035157-1.84375-2.125-1.253907-4.300781-2.429688-6.515624-3.527344-1.109376-.5625-2.226563-1.109375-3.359376-1.625-2.179687-1.011719-4.375-1.96875-6.648437-2.855469-1.335937-.496094-2.554687-.953125-3.84375-1.414062-2.15625-.761719-4.3125-1.496094-6.515625-2.132813-1.535156-.449219-3.097656-.8125-4.640625-1.191406-2.019531-.507813-3.988281-1.015625-6.074219-1.417969-2.089844-.394531-4.101562-.652344-6.15625-.929687-1.648437-.226563-3.269531-.519531-4.933594-.679688-3.792968-.371093-7.625-.582031-11.46875-.582031-3.847656 0-7.683593.210938-11.46875.582031-1.664062.160157-3.289062.453125-4.941406.679688-2.046875.277343-4.113281.546875-6.148437.929687-2.035157.390625-3.984375.910156-6.074219 1.417969-1.546875.378906-3.105469.742187-4.652344 1.191406-2.191406.636719-4.347656 1.332031-6.503906 2.132813-.773438.277344-1.574219.480468-2.324219.769531 1.738281-1.117187 3.445313-2.289063 5.132813-3.488281.910156-.648438 1.796875-1.328125 2.660156-2.011719 2.078125-1.5625 4.101562-3.175781 6.066406-4.875.269532-.226563.5625-.429687.8125-.65625.257813-.222656.121094-.1875.199219-.265625 25.753906-22.636719 40.523437-55.265625 40.523437-89.550781 0-34.292969-14.769531-66.921875-40.523437-89.558594-.078125-.078125-.101563-.183594-.199219-.261719-.089844-.082031-.542968-.425781-.8125-.660156-1.964844-1.699219-3.988281-3.304688-6.066406-4.875-.886719-.683594-1.785156-1.335938-2.660156-2.011719-2.046875-1.464843-4.167969-2.863281-6.304688-4.191406-1.011718-.625-2.011718-1.253906-3.039062-1.851563-2.125-1.246093-4.300782-2.425781-6.515625-3.527343-1.105469-.5625-2.226563-1.101563-3.355469-1.621094-2.183594-1.007813-4.375-1.96875-6.65625-2.863281-1.328125-.492188-2.550781-.941406-3.84375-1.410156-2.152344-.757813-4.308594-1.488282-6.507812-2.128907-1.546876-.449219-3.097657-.808593-4.644532-1.199219-2.019531-.503906-3.988281-1.011718-6.078125-1.40625-2.09375-.402343-4.097656-.648437-6.148437-.933593-1.648438-.222657-3.273438-.515625-4.9375-.683594-3.765625-.371094-7.59375-.578125-11.441406-.578125-3.851563 0-7.679688.207031-11.46875.578125-1.667969.167969-3.289063.460937-4.9375.683594-2.050782.285156-4.117188.542969-6.148438.933593-2.035156.386719-3.996094.902344-6.085938 1.40625-1.539062.390626-3.101562.75-4.644531 1.199219-2.191406.640625-4.347656 1.328125-6.503906 2.128907-1.332031.46875-2.582031.917968-3.859375 1.425781-2.238281.878906-4.429688 1.839843-6.652344 2.847656-1.132812.519531-2.261718 1.058594-3.382812 1.621094-2.203125 1.121093-4.378906 2.300781-6.507813 3.527343-1.019531.597657-2.019531 1.226563-3.027343 1.851563-2.144532 1.328125-4.257813 2.726563-6.3125 4.191406-.902344.648438-1.796876 1.328125-2.664063 2.011719-2.070313 1.570312-4.089844 3.175781-6.066406 4.875-.257813.234375-.550781.429688-.808594.660156-.25.222656-.125.183594-.203125.261719-11.144531 9.886719-20.359375 21.753906-27.183594 35.003906-.96875-1.863281-1.992187-3.703125-3.042968-5.515625-.597657-1.023437-1.21875-2.019531-1.855469-3.035156-1.328125-2.144531-2.660157-4.257812-4.1875-6.300781-.65625-.90625-1.328125-1.800781-2.011719-2.664063-1.566406-2.074218-3.183594-4.101562-4.878906-6.066406-.226563-.269531-.425782-.5625-.648438-.816406-.230468-.25-.183594-.101563-.246094-.183594-6.324218-7.15625-13.46875-13.539062-21.292968-19.015625l1.171875.292969c1.535156.449218 3.089843.808594 4.636719 1.199218 2.019531.484376 3.984374 1.011719 6.089843 1.40625 2.101563.402344 4.074219.648438 6.121094.933594 1.652344.222656 3.289063.515625 4.96875.683594 3.785156.371094 7.617187.585938 11.46875.585938 3.839844 0 7.660156-.214844 11.46875-.585938 1.671875-.167969 3.296875-.460938 4.960937-.683594 2.035157-.285156 4.082032-.542968 6.105469-.933594 2.023438-.386718 4.078125-.921874 6.097657-1.40625 1.5625-.390624 3.097656-.75 4.632812-1.199218 2.207031-.640625 4.367188-1.328125 6.503906-2.128906 1.332032-.46875 2.660156-.917969 3.871094-1.425782 2.238281-.875 4.433594-1.839844 6.652344-2.847656 1.136718-.519531 2.253906-1.058594 3.371094-1.621094 2.21875-1.121094 4.386718-2.289062 6.515624-3.539062 1.03125-.585938 2.03125-1.199219 3.019532-1.828125 2.144531-1.328125 4.261718-2.65625 6.328125-4.203125.90625-.648438 1.792969-1.328125 2.65625-2.011719 2.066406-1.570313 4.101562-3.175781 6.066406-4.875l.8125-.660156c.078125-.078125.121094-.183594.199219-.261719 25.753906-22.636719 40.523437-55.265625 40.523437-89.554688 0-34.285156-14.769531-66.917968-40.523437-89.554687-.078125-.078125-.121094-.1875-.199219-.265625l-.835937-.757812c-1.972657-1.703126-3.996094-3.3125-6.066407-4.886719-.890625-.671875-1.785156-1.324219-2.660156-2.007813-2.074219-1.460937-4.179687-2.859375-6.324219-4.1875-1-.628906-2.011718-1.25-3.019531-1.855468-2.144531-1.25-4.320313-2.425782-6.515625-3.523438-1.113281-.558594-2.234375-1.105469-3.359375-1.621094-2.179687-1.015625-4.378906-1.972656-6.652344-2.863281-1.332031-.496094-2.554687-.949219-3.84375-1.40625-2.152343-.761719-4.3125-1.492187-6.519531-2.132813-1.535156-.453124-3.089844-.8125-4.644531-1.195312-2.007813-.503906-3.996094-1.011719-6.066407-1.410156-2.078124-.402344-4.097656-.65625-6.167968-.933594-1.632813-.230469-3.253906-.515625-4.917969-.679688-3.765625-.359374-7.628906-.570312-11.46875-.570312-3.851563 0-7.683594.210938-11.46875.585938-1.679687.15625-3.292969.449218-4.945313.675781-2.054687.28125-4.125.542969-6.144531.929687-2.019531.390625-4.070312.910156-6.082031 1.417969-1.554688.378906-3.109375.738281-4.644531 1.1875-2.207031.640625-4.347657 1.339844-6.507813 2.132813-1.324218.464843-2.582031.921874-3.855468 1.425781-2.234376.878906-4.433594 1.835937-6.65625 2.847656-1.125.515625-2.25 1.0625-3.363282 1.625-2.210937 1.117187-4.375 2.292969-6.507812 3.527344-1.027344.59375-2.035156 1.226562-3.035156 1.84375-2.140626 1.332031-4.257813 2.730469-6.308594 4.191406-.917969.652344-1.792969 1.335937-2.660156 2.011719-2.078126 1.570312-4.113282 3.179687-6.066407 4.886718-.265625.222657-.558593.425782-.828125.648438-.261718.222656-.101562.191406-.179687.269531-25.753907 22.632813-40.523438 55.261719-40.523438 89.554688 0 34.285156 14.769531 66.910156 40.523438 89.546875.078125.085937.101562.191406.179687.269531s.5625.421875.828125.652344c1.953125 1.703125 3.988281 3.3125 6.066407 4.886719.890624.671874 1.769531 1.328124 2.660156 2.007812.402344.289062.777344.597656 1.171875.875-44.710938-13.507812-93.195313.34375-124.015625 35.433594-.070313.085937-.171875.109375-.238282.1875-.070312.078125-.425781.546875-.65625.8125-1.703124 1.976562-3.3125 3.996094-4.882812 6.066406-.675781.898438-1.328125 1.785156-2.011719 2.664062-1.476562 2.0625-2.855469 4.164063-4.203125 6.320313-.625 1-1.234375 2-1.820312 3.011719-1.253906 2.136718-2.425782 4.304687-3.539063 6.515625-.558593 1.121093-1.105469 2.25-1.625 3.382812-1.007812 2.164063-1.964843 4.363281-2.84375 6.648438-.507812 1.335937-.960937 2.574219-1.425781 3.878906-.761719 2.140625-1.492188 4.296875-2.132812 6.488281-.449219 1.542969-.808594 3.089844-1.195313 4.632813-.492187 2.035156-1.011719 3.992187-1.410156 6.09375-.394531 2.105469-.65625 4.082031-.933594 6.121093-.222656 1.644532-.515625 3.285157-.675781 4.957032-.371094 3.808594-.585938 7.628906-.585938 11.476562 0 3.84375.214844 7.667969.585938 11.472656.160156 1.675782.453125 3.3125.675781 4.960938.277344 2.039062.546875 4.082031.933594 6.117188.378906 2.042968.917969 4 1.410156 6.101562.386719 1.539062.746094 3.085938 1.195313 4.625.640624 2.199219 1.332031 4.351562 2.132812 6.496094.464844 1.332031.917969 2.660156 1.425781 3.886718.878907 2.226563 1.835938 4.417969 2.828125 6.652344.535156 1.132813 1.082032 2.265625 1.640625 3.382813 1.113281 2.210937 2.285157 4.375 3.539063 6.519531.585937 1.015625 1.195312 2.003906 1.820312 3.003906 1.328125 2.160156 2.664063 4.257813 4.203125 6.320313.652344.90625 1.335938 1.796875 2.011719 2.667969 1.570312 2.074218 3.179688 4.097656 4.882812 6.066406.230469.265625.429688.558594.65625.808594.222657.253906.179688.121093.265626.199218 7.367187 8.332032 15.847656 15.609375 25.214843 21.613282-.757812-.292969-1.558593-.496094-2.328125-.773438-2.15625-.761719-4.316406-1.492188-6.507812-2.132812-1.546875-.449219-3.097656-.808594-4.644532-1.195313-2.027343-.503906-3.992187-1.011719-6.082031-1.410156-2.089843-.394531-4.097656-.652344-6.144531-.933594-1.652344-.222656-3.277344-.515625-4.9375-.675781-3.753906-.441406-7.585938-.652344-11.429688-.652344-3.851562 0-7.683593.210938-11.46875.582031-1.664062.160157-3.289062.453125-4.941406.679688-2.050781.277343-4.113281.546875-6.148437.929687-2.035157.390625-3.988281.910156-6.078125 1.417969-1.546875.378906-3.101563.742187-4.648438 1.191406-2.191406.636719-4.347656 1.332031-6.507812 2.132813-1.324219.460937-2.582032.917968-3.855469 1.421875-2.234375.878906-4.429687 1.835937-6.65625 2.847656-1.125.515625-2.257813 1.0625-3.382813 1.625-2.199218 1.117187-4.371093 2.289063-6.5 3.527344-1.023437.597656-2.023437 1.226562-3.035156 1.84375-2.140625 1.335937-4.253906 2.660156-6.304687 4.195312-.910157.648438-1.796875 1.332031-2.660157 2.007813-2.078124 1.574218-4.101562 3.179687-6.066406 4.886718-.269531.226563-.5625.425782-.820312.648438-.25.226562-.113282.191406-.195313.269531-25.757812 22.636719-40.515625 55.265625-40.515625 89.554688 0 34.285156 14.757813 66.914062 40.515625 89.550781.082031.085938.109375.1875.195313.265625.097656.078125.550781.425781.820312.652344 1.964844 1.703125 3.988282 3.316406 6.066406 4.886719.886719.671874 1.777344 1.328124 2.660157 2.003906 2.058593 1.476562 4.164062 2.867187 6.316406 4.207031 1 .625 2 1.238281 3.007813 1.820313 2.144531 1.257812 4.316406 2.425781 6.515624 3.546874 1.125.554688 2.257813 1.101563 3.382813 1.632813 2.171875.996094 4.367187 1.953125 6.65625 2.835937 1.328125.507813 2.570313.957032 3.871094 1.421876 2.144531.757812 4.300781 1.492187 6.492187 2.132812 1.53125.445312 3.089844.808594 4.628906 1.195312 2.03125.492188 4 1.007813 6.097657 1.410157 2.101562.398437 4.089843.652343 6.125.929687 1.648437.226563 3.28125.519532 4.964843.679688 3.800782.371094 7.617188.582031 11.46875.582031 3.84375 0 7.660157-.210937 11.46875-.582031 1.671876-.160156 3.3125-.453125 4.960938-.679688 2.035156-.277344 4.085938-.546875 6.125-.929687 2.035156-.386719 4.070312-.917969 6.09375-1.410157 1.539062-.386718 3.097656-.75 4.625-1.195312 2.203125-.640625 4.359375-1.335938 6.496094-2.132812 1.332031-.464844 2.660156-.914063 3.875-1.421876 2.234375-.882812 4.429687-1.839843 6.652344-2.851562 1.132812-.515625 2.265624-1.0625 3.378906-1.617188 2.207031-1.121093 4.378906-2.289062 6.523437-3.546874 1.011719-.582032 2.003907-1.195313 3-1.820313 2.160157-1.324219 4.261719-2.730469 6.328125-4.207031.90625-.648438 1.792969-1.332032 2.65625-2.003906 2.082032-1.570313 4.101563-3.183594 6.066406-4.886719.269532-.226563.5625-.429688.8125-.652344.257813-.226563.121094-.179687.203126-.265625 11.136718-9.867188 20.363281-21.707031 27.183593-34.933594.976563 1.878906 1.996094 3.699219 3.0625 5.527344.589844 1.011719 1.195313 2.007812 1.824219 3.003906 1.328125 2.15625 2.660156 4.257813 4.203125 6.320313.652344.910156 1.332031 1.800781 2.011719 2.664062 1.570312 2.074219 3.179687 4.101563 4.882812 6.066407.226563.269531.425782.5625.65625.8125.222656.253906.179688.121093.257813.199218 22.640625 25.753906 55.265625 40.515625 89.554687 40.515625 34.285156 0 66.921875-14.761719 89.558594-40.515625.078125-.078125.183594-.101562.261719-.199218.082031-.09375.429687-.542969.652343-.8125 1.703126-1.964844 3.316407-3.992188 4.886719-6.066407.679688-.886719 1.328125-1.785156 2.011719-2.664062 1.472656-2.042969 2.855469-4.164063 4.191406-6.300781.640625-1.015626 1.246094-2.011719 1.84375-3.035157 1.054688-1.816406 2.074219-3.648437 3.050782-5.515625 6.828124 13.226563 16.058593 25.078125 27.210937 34.933594.082031.085938.105469.1875.203125.265625.089844.078125.542969.425781.808594.652344 1.96875 1.703125 3.988281 3.316406 6.066406 4.886719.890625.671874 1.78125 1.328124 2.660156 2.003906 2.066406 1.476562 4.167969 2.867187 6.328125 4.207031.992188.625 1.988281 1.238281 3 1.820313 2.140625 1.257812 4.3125 2.425781 6.523438 3.546874 1.113281.554688 2.246093 1.101563 3.378906 1.632813 2.171875.996094 4.363281 1.953125 6.652344 2.835937 1.328125.507813 2.570312.957032 3.875 1.421876 2.136719.757812 4.292969 1.492187 6.496093 2.132812 1.527344.445312 3.082032.808594 4.625 1.195312 2.023438.492188 3.992188 1.007813 6.09375 1.410157 2.105469.398437 4.085938.652343 6.121094.929687 1.652344.226563 3.292969.519532 4.964844.679688 3.808594.371094 7.625.582031 11.46875.582031 3.851562 0 7.667969-.210937 11.46875-.582031 1.683594-.160156 3.316406-.453125 4.964844-.679688 2.035156-.277344 4.089844-.546875 6.125-.929687 2.035156-.386719 4.066406-.917969 6.09375-1.410157 1.542968-.386718 3.101562-.75 4.632812-1.195312 2.191406-.640625 4.347656-1.335938 6.492188-2.132812 1.328125-.464844 2.660156-.914063 3.871094-1.421876 2.234374-.882812 4.429687-1.839843 6.65625-2.851562 1.125-.515625 2.257812-1.0625 3.382812-1.617188 2.199219-1.121093 4.371094-2.289062 6.511719-3.546874 1.011719-.582032 2.011719-1.195313 3.011719-1.820313 2.152343-1.324219 4.257812-2.730469 6.316406-4.207031.90625-.648438 1.796875-1.332032 2.660156-2.003906 2.078125-1.570313 4.097656-3.183594 6.066406-4.886719.269532-.226563.5625-.429688.820313-.652344.25-.226563.113281-.179687.195312-.265625 25.757813-22.636719 40.515625-55.265625 40.515625-89.550781 0-34.289063-14.757812-66.917969-40.515625-89.554688zm-478.441406-75.582031-.347656-.574219c-4.007813-6.796875-7.140626-14.070312-9.3125-21.652343-.191407-.648438-.335938-1.328126-.507813-1.976563-.804687-3.074219-1.449219-6.179687-1.933594-9.316406-.144531-.917969-.300781-1.839844-.421875-2.773438-1.050781-7.636719-1.050781-15.378906 0-23.015625.121094-.933594.277344-1.855468.421875-2.765625.484375-3.140625 1.128907-6.253906 1.933594-9.3125.171875-.675781.316406-1.339843.507813-1.988281 2.171874-7.582031 5.304687-14.863281 9.3125-21.660156l.347656-.503906c17.703125 29.382812 17.703125 66.148437 0 95.539062zm446.425781 85 .542969.289062c-29.507813 17.277344-66.039063 17.277344-95.542969 0l.535156-.3125c29.242188-16.855468 65.257813-16.851562 94.492188.023438zm-200.9375-212.902344c29.238281-16.863281 65.246094-16.863281 94.476563 0l.550781.292969c-29.507813 17.269531-66.035157 17.269531-95.542969 0zm-32.585937 66.828125h-12.238282c2.621094-18.191406 10.589844-35.179687 22.886719-48.824219 41.378906 29.609376 97.007813 29.609376 138.386719 0 12.304687 13.644532 20.269531 30.632813 22.894531 48.824219h-12.246094c-7.351562 0-13.308593 5.953125-13.308593 13.304688 0 7.347656 5.957031 13.308593 13.308593 13.308593h12.246094c-2.625 18.179688-10.589844 35.175782-22.894531 48.816407-41.378906-29.613281-97.007813-29.613281-138.386719 0-12.296875-13.640625-20.265625-30.636719-22.886719-48.816407h12.238282c7.351562 0 13.308593-5.960937 13.308593-13.308593 0-7.351563-5.957031-13.304688-13.308593-13.304688zm127.613281 93.140625-.53125.324219c-29.238281 16.855469-65.242188 16.855469-94.480469 0l-.53125-.324219c29.507812-17.269531 66.035156-17.269531 95.542969 0zm-163.3125-10.339844c1.476562-2.046874 2.859375-4.164062 4.1875-6.3125.636719-1.007812 1.257812-2 1.855469-3.027343 1.050781-1.8125 2.074218-3.640625 3.042968-5.507813 6.832032 13.222656 16.0625 25.070313 27.214844 34.925782.082031.085937.105469.191406.195312.269531.097657.078125.550782.429687.820313.652343 1.964844 1.703126 3.984375 3.3125 6.066406 4.886719.886719.671875 1.78125 1.328125 2.660157 2.007813 1.792968 1.328125 3.628906 2.515625 5.503906 3.710937-27.335938-10.574219-57.632813-10.574219-84.972656 0 9.511718-6.042969 18.121093-13.398437 25.59375-21.839843.078124-.078126.179687-.101563.257812-.195313.082031-.097656.429688-.546875.652344-.816406 1.703125-1.964844 3.316406-3.984375 4.886718-6.066407.707032-.921874 1.378907-1.808593 2.035157-2.710937zm-17.527344-117.265624.347656.554687c4.007813 6.792969 7.140625 14.074219 9.3125 21.664063.191407.652343.335938 1.328124.507813 1.980468.808594 3.070313 1.449218 6.179688 1.929687 9.3125.148438.917969.304688 1.839844.425781 2.773438 1.050782 7.636718 1.050782 15.378906 0 23.019531-.121093.929687-.277343 1.851563-.425781 2.761719-.480469 3.140625-1.121093 6.253906-1.929687 9.324218-.171875.664063-.316406 1.324219-.507813 1.976563-2.171875 7.59375-5.304687 14.871094-9.3125 21.667969l-.347656.503906c-17.707031-29.390625-17.707031-66.15625 0-95.539062zm70.167969-85.003907c-29.234375 16.855469-65.238282 16.855469-94.476563 0l-.5625-.292969c29.507813-17.277343 66.039063-17.277343 95.539063 0zm-94.476563-160.269531c29.238281-16.863281 65.242188-16.863281 94.476563 0l.535156.320312c-29.507812 17.269532-66.035156 17.269532-95.542969 0zm-21.984375 142.261719c-12.308594-13.636719-20.28125-30.636719-22.894531-48.820313h12.234375c7.355469 0 13.308594-5.960937 13.308594-13.304687 0-7.355469-5.953125-13.308594-13.308594-13.308594h-12.234375c2.609375-18.183594 10.578125-35.179687 22.882813-48.824219 41.375 29.609375 97.007812 29.609375 138.390624 0 12.292969 13.644532 20.269532 30.640625 22.898438 48.824219h-12.242188c-7.347656 0-13.308593 5.953125-13.308593 13.308594 0 7.34375 5.960937 13.304687 13.308593 13.304687h12.242188c-2.625 18.179688-10.589844 35.167969-22.890625 48.820313-41.371094-29.609375-97.007813-29.609375-138.386719 0zm-95.679687 81.585937c13.652343-12.304687 30.640625-20.269531 48.832031-22.890625v12.246094c0 7.34375 5.957031 13.304687 13.300781 13.304687 7.351563 0 13.3125-5.960937 13.3125-13.304687v-12.246094c18.183594 2.621094 35.175781 10.585938 48.820313 22.890625-29.617188 41.371094-29.617188 97.011719 0 138.386719-13.644532 12.300781-30.636719 20.269531-48.820313 22.886719v-12.242188c0-7.347656-5.960937-13.300781-13.3125-13.300781-7.34375 0-13.300781 5.953125-13.300781 13.300781v12.242188c-18.191406-2.617188-35.179688-10.585938-48.832031-22.886719 29.621093-41.375 29.621093-97.015625 0-138.386719zm-91.554688 201.964844c29.234375-16.859375 65.234375-16.859375 94.476563 0l.53125.289062c-29.507813 17.277344-66.039063 17.277344-95.546875 0zm94.476563 160.269531c-29.242188 16.859375-65.242188 16.859375-94.476563 0l-.539062-.292969c29.507812-17.277343 66.039062-17.277343 95.546875 0zm32.597656-66.828125h12.246094c-2.621094 18.179688-10.589844 35.175782-22.894532 48.820313-41.375-29.609375-97.007812-29.609375-138.382812 0-12.300781-13.644531-20.269531-30.640625-22.890625-48.820313h12.246094c7.34375 0 13.304687-5.957031 13.304687-13.304687 0-7.355469-5.960937-13.308594-13.304687-13.308594h-12.246094c2.621094-18.183594 10.589844-35.175781 22.890625-48.824219 41.375 29.609375 97.007812 29.609375 138.382812 0 12.304688 13.648438 20.273438 30.640625 22.894532 48.824219h-12.246094c-7.347656 0-13.308594 5.953125-13.308594 13.308594 0 7.347656 5.960938 13.304687 13.308594 13.304687zm53.226562 34.460938-.34375-.570313c-4.007812-6.792969-7.140624-14.066406-9.316406-21.648437-.183594-.652344-.328125-1.328125-.503906-1.988282-.804688-3.058593-1.449219-6.171874-1.933594-9.3125-.144531-.910156-.300781-1.832031-.425781-2.765624-1.042969-7.636719-1.042969-15.378907 0-23.015626.125-.933593.28125-1.855468.425781-2.773437.484375-3.136719 1.128906-6.242187 1.933594-9.3125.175781-.667969.320312-1.332031.503906-1.980469 2.175782-7.589844 5.308594-14.871094 9.316406-21.667968l.34375-.503907c17.707032 29.386719 17.707032 66.15625 0 95.539063zm-9.765624-126.992188c0 .078125-.175782.101563-.242188.183594-.0625.078125-.425781.542969-.648438.8125-1.699218 1.964844-3.316406 3.992188-4.882812 6.066406-.683594.890625-1.332031 1.785156-2.007812 2.664063-1.480469 2.058593-2.863282 4.160156-4.207032 6.3125-.625 1.003906-1.242187 1.996093-1.820312 3.011719-1.070313 1.820312-2.09375 3.648437-3.0625 5.527343-6.832032-13.226562-16.0625-25.078125-27.21875-34.9375-.078125-.078125-.101563-.183593-.195313-.261719-.089843-.078124-.546875-.425781-.8125-.648437-1.96875-1.707031-3.988281-3.316406-6.066406-4.886719-.890625-.675781-1.789063-1.335937-2.660156-2.011718-1.796875-1.324219-3.632813-2.515626-5.511719-3.707032 27.339844 10.570313 57.640625 10.570313 84.980469 0-9.519531 6.054688-18.140625 13.421875-25.617188 21.875zm151.738281 148.417969c-13.644531 12.304687-30.636719 20.261719-48.824219 22.890625v-12.242188c0-7.355468-5.957031-13.3125-13.308594-13.3125-7.34375 0-13.304687 5.957032-13.304687 13.3125v12.242188c-18.183594-2.628906-35.175781-10.585938-48.824219-22.890625 29.609375-41.375 29.609375-97.007813 0-138.390625 13.648438-12.296875 30.640625-20.261719 48.824219-22.882812v12.234374c0 7.355469 5.960937 13.3125 13.304687 13.3125 7.351563 0 13.308594-5.957031 13.308594-13.3125v-12.234374c18.1875 2.621093 35.179688 10.585937 48.824219 22.882812-29.617188 41.382812-29.617188 97.015625 0 138.390625zm30.230469-57.6875c-.121094.933594-.277344 1.855469-.425782 2.773437-.476562 3.136719-1.121094 6.246094-1.933594 9.316407-.167968.664062-.316406 1.328125-.503906 1.976562-2.171875 7.589844-5.300781 14.871094-9.3125 21.667969l-.34375.527344c-17.707031-29.382813-17.707031-66.152344 0-95.539063l.34375.5625c4.011719 6.792969 7.140625 14.074219 9.3125 21.660157.1875.648437.335938 1.332031.503906 1.984374.8125 3.070313 1.457032 6.171876 1.933594 9.3125.148438.921876.304688 1.835938.425782 2.765626 1.050781 7.640624 1.050781 15.382812 0 23.027343zm11.042968-71.640625c-.597656-1.019531-1.203125-2.019531-1.84375-3.03125-1.335937-2.144531-2.664062-4.257812-4.191406-6.308594-.65625-.902344-1.332031-1.796875-2.011719-2.664062-1.570312-2.070313-3.183593-4.101563-4.886719-6.066406-.222656-.269532-.421874-.5625-.652343-.8125-.222657-.253907-.164063-.105469-.234375-.183594-7.394532-8.339844-15.898438-15.613282-25.285156-21.625.769531.296875 1.570312.492187 2.335937.769531 2.144531.761719 4.300781 1.496094 6.503906 2.132813 1.527344.449218 3.078125.8125 4.625 1.195312 2.027344.496094 3.992188 1.011719 6.097657 1.410156 2.097656.398438 4.082031.65625 6.117187.933594 1.652344.226562 3.289063.519531 4.964844.679688 3.804687.371093 7.628906.585937 11.46875.585937 3.84375 0 7.660156-.214844 11.46875-.585937 1.679687-.160157 3.3125-.453126 4.96875-.679688 2.035156-.277344 4.085937-.546875 6.121093-.933594 2.035157-.390625 4.070313-.914062 6.089844-1.410156 1.546875-.382812 3.097656-.746094 4.636719-1.195312 2.191406-.636719 4.347656-1.332032 6.492187-2.132813.777344-.277344 1.585938-.472656 2.339844-.769531-1.742187 1.117187-3.449218 2.277344-5.132812 3.488281-.910156.648437-1.800782 1.328125-2.664063 2.011719-2.074219 1.566406-4.101562 3.175781-6.066406 4.878906-.269531.230469-.5625.425781-.8125.648438-.253906.234374-.121094.191406-.199219.269531-11.152344 9.875-20.375 21.734375-27.199218 34.96875-.976563-1.925781-1.996094-3.761719-3.050782-5.574219zm156.742188 140.269531c-29.238282 16.859375-65.242188 16.859375-94.476563 0l-.535156-.292969c29.503906-17.277343 66.035156-17.277343 95.542969 0zm32.601562-66.828125h12.242188c-2.617188 18.179688-10.589844 35.175782-22.890625 48.820313-41.375-29.609375-97.011719-29.609375-138.390625 0-12.292969-13.644531-20.265625-30.640625-22.886719-48.820313h12.246094c7.34375 0 13.304687-5.957031 13.304687-13.304687 0-7.355469-5.960937-13.308594-13.304687-13.308594h-12.246094c2.621094-18.183594 10.59375-35.175781 22.886719-48.824219 41.378906 29.609375 97.015625 29.609375 138.390625 0 12.300781 13.648438 20.273437 30.640625 22.890625 48.824219h-12.242188c-7.347656 0-13.304687 5.953125-13.304687 13.308594 0 7.347656 5.957031 13.304687 13.304687 13.304687zm0 0" data-original="#000000" class="active-path" data-old_color="#000000" fill="#FFFFFF"/></g> </svg>
