<?xml version="1.0" encoding="iso-8859-1"?>
<!-- Generator: Adobe Illustrator 19.0.0, SVG Export Plug-In . SVG Version: 6.00 Build 0)  -->
<svg version="1.1" id="Layer_1" xmlns="http://www.w3.org/2000/svg" xmlns:xlink="http://www.w3.org/1999/xlink" x="0px" y="0px"
	 viewBox="0 0 512 512" style="enable-background:new 0 0 512 512;" xml:space="preserve">
<path style="fill:#5DDDD3;" d="M256.001,512C397,512,512,397,512,256.001C512,115,397,0,256.001,0C115.001,0,0,115,0,256.001
	C0,397,115.001,512,256.001,512z"/>
<g>
	<path style="fill:#FBB429;" d="M255.996,370.432l-62.317-34.483L87.546,477.514l54.068-16.303l8.25,50.786L255.996,370.432
		L255.996,370.432z"/>
	<path style="fill:#FBB429;" d="M256,370.432l62.318-34.483l106.132,141.566l-54.068-16.303l-8.25,50.786L256,370.432L256,370.432z"
		/>
</g>
<g>
	<path style="fill:#F5A209;" d="M255.996,370.432l-62.317-34.483l-26.899,35.879l0.547,0.364
		c-6.167,15.353,1.155,32.867,16.478,39.206c15.336,6.351,32.88-0.835,39.376-16.046l2.583,0.5
		c0.046,4.126,0.917,8.054,2.458,11.627L255.996,370.432z"/>
	<path style="fill:#F5A209;" d="M256,370.432l62.318-34.483l26.898,35.878l-0.549,0.365c6.185,15.357-1.151,32.858-16.488,39.21
		c-15.317,6.356-32.871-0.845-39.366-16.05l-2.581,0.502c-0.044,4.127-0.915,8.058-2.455,11.631L256,370.432L256,370.432z"/>
</g>
<path style="fill:#FF5B61;" d="M256,63.37c15.279,0,27.683,12.307,27.85,27.549l2.375,0.461
	c5.989-14.013,22.152-20.628,36.274-14.779c14.114,5.838,20.857,21.971,15.179,36.113l2.011,1.338
	c10.89-10.668,28.367-10.597,39.181,0.217c10.807,10.795,10.866,28.277,0.205,39.169l1.338,2.014
	c14.147-5.689,30.268,1.061,36.119,15.189c5.853,14.107-0.779,30.273-14.785,36.26l0.463,2.38
	c15.241,0.163,27.546,12.567,27.546,27.853c0.007,15.274-12.314,27.674-27.549,27.843l-0.463,2.38
	c14.011,5.982,20.633,22.15,14.78,36.271c-5.837,14.114-21.97,20.857-36.112,15.178l-1.343,2.014
	c10.67,10.89,10.602,28.362-0.212,39.176c-10.795,10.807-28.278,10.868-39.169,0.205l-2.016,1.34
	c5.697,14.145-1.06,30.268-15.188,36.119c-14.107,5.853-30.277-0.781-36.26-14.785l-2.38,0.463
	c-0.158,15.237-12.567,27.546-27.853,27.546c-15.274,0.007-27.678-12.317-27.843-27.551l-2.38-0.458
	c-5.985,14.011-22.145,20.63-36.271,14.78c-14.114-5.84-20.859-21.972-15.178-36.114l-2.01-1.34
	c-10.888,10.67-28.367,10.599-39.181-0.212c-10.804-10.8-10.87-28.28-0.205-39.173l-1.34-2.014
	c-14.143,5.693-30.268-1.059-36.121-15.185c-5.847-14.11,0.778-30.282,14.786-36.264l-0.459-2.375
	c-15.239-0.163-27.551-12.569-27.551-27.853c-0.002-15.277,12.312-27.681,27.551-27.848l0.459-2.375
	c-14.011-5.987-20.631-22.15-14.781-36.271c5.845-14.117,21.971-20.864,36.116-15.182l1.34-2.01
	c-10.67-10.894-10.599-28.367,0.212-39.176c10.802-10.807,28.278-10.875,39.173-0.21l2.01-1.338
	c-5.686-14.15,1.063-30.268,15.185-36.118c14.114-5.847,30.282,0.771,36.269,14.784l2.375-0.461
	C228.315,75.677,240.719,63.37,256,63.37L256,63.37z"/>
<path style="fill:#EC4B53;" d="M256.001,371.678c74.108,0,134.551-60.444,134.551-134.552s-60.443-134.548-134.551-134.548
	c-74.109,0-134.551,60.441-134.551,134.548C121.45,311.234,181.892,371.678,256.001,371.678z"/>
<path style="fill:#FBB429;" d="M256.001,365.626c70.775,0,128.5-57.723,128.5-128.5c0-70.775-57.726-128.5-128.5-128.5
	c-70.776,0-128.502,57.726-128.502,128.5C127.5,307.903,185.225,365.626,256.001,365.626z"/>
<path style="fill:#F5A209;" d="M232.118,173.414c4.787,0,8.715-0.526,11.783-1.571c3.067-1.048,5.574-2.468,7.517-4.265
	c1.947-1.796,3.518-3.891,4.716-6.285c1.195-2.393,2.243-4.937,3.14-7.63h16.61v152.873h7.242v10.814h-40.014v-10.814h8.084V190.92
	h-19.078V173.414z"/>
<path style="fill:#FFFFFF;" d="M229.172,171.123c4.788,0,8.716-0.523,11.783-1.57c3.068-1.048,5.573-2.468,7.519-4.265
	c1.946-1.795,3.516-3.891,4.713-6.286c1.198-2.393,2.244-4.935,3.143-7.629h16.61v152.871h7.242v10.816h-40.014v-10.816h8.084
	V188.63h-19.079L229.172,171.123L229.172,171.123z"/>
<g>
</g>
<g>
</g>
<g>
</g>
<g>
</g>
<g>
</g>
<g>
</g>
<g>
</g>
<g>
</g>
<g>
</g>
<g>
</g>
<g>
</g>
<g>
</g>
<g>
</g>
<g>
</g>
<g>
</g>
</svg>
