<?xml version="1.0" encoding="iso-8859-1"?>
<!-- Generator: Adobe Illustrator 19.0.0, SVG Export Plug-In . SVG Version: 6.00 Build 0)  -->
<svg version="1.1" id="Capa_1" xmlns="http://www.w3.org/2000/svg" xmlns:xlink="http://www.w3.org/1999/xlink" x="0px" y="0px"
	 viewBox="0 0 511.998 511.998" style="enable-background:new 0 0 511.998 511.998;" xml:space="preserve">
<path style="fill:#03AA6F;" d="M499.411,285.375l-33.574,33.574l-92.58,66.896l-16.367-16.367l0.336-0.42
	c25.365-2.61,43.805-25.281,41.195-50.646c-2.61-25.365-25.281-43.805-50.646-41.195c-21.957,2.258-39.248,19.75-41.254,41.732
	l-0.084,0.084l-29.453-29.461L390.296,176.26L499.411,285.375z"/>
<polygon style="fill:#F5D0C7;" points="499.411,352.522 323.149,503.604 272.788,503.604 113.313,444.85 4.198,444.85 
	4.198,352.522 113.313,352.522 119.188,350.004 155.28,334.561 172.067,327.342 255.33,327.342 306.362,327.342 306.362,377.703 
	205.64,377.703 314.755,428.063 373.257,385.844 465.837,318.949 "/>
<path style="fill:#79DCA0;" d="M398.69,323.145c0.025,23.678-17.903,43.528-41.464,45.912l-0.336,0.42l-46.332-46.332l-4.113-4.113
	l0.084-0.084c2.165-25.407,24.517-44.242,49.924-42.076C380.442,278.92,398.832,299.065,398.69,323.145z"/>
<polygon style="fill:#03AA6F;" points="373.257,385.844 314.755,428.063 205.64,377.703 306.362,377.703 306.362,327.342 
	310.558,323.145 356.89,369.477 "/>
<path style="fill:#FFDB6F;" d="M281.181,155.277c6.463,0.084,12.758-2.082,17.794-6.127c4.558-3.601,7.269-9.048,7.386-14.856
	c-0.285-5.447-4.046-10.089-9.317-11.499l-15.864-5.288v-37.77c-6.463-0.084-12.758,2.082-17.794,6.127
	c-4.558,3.601-7.269,9.048-7.386,14.856c0.285,5.447,4.046,10.089,9.317,11.499l15.864,5.288V155.277z M281.181,41.965
	c41.724,0,75.541,33.817,75.541,75.541s-33.817,75.541-75.541,75.541s-75.541-33.817-75.541-75.541S239.466,41.965,281.181,41.965z"
	/>
<path style="fill:#03AA6F;" d="M310.558,323.145l-4.197,4.197H255.33c-4.499-27.447-30.393-46.055-57.839-41.556
	c-23.997,3.937-41.757,24.458-42.211,48.774l-36.092,15.444l-73.023-73.023L155.28,167.867l121.705,121.705l29.461,29.461
	L310.558,323.145z"/>
<g>
	<path style="fill:#FFDB6F;" d="M306.362,134.293c-0.118,5.808-2.829,11.256-7.386,14.856c-5.036,4.046-11.331,6.211-17.794,6.127
		v-37.77l15.864,5.288C302.316,124.204,306.076,128.846,306.362,134.293z"/>
	<path style="fill:#FFDB6F;" d="M281.181,79.736v37.77l-15.864-5.288c-5.271-1.41-9.031-6.052-9.317-11.499
		c0.117-5.808,2.829-11.256,7.386-14.856C268.432,81.817,274.718,79.652,281.181,79.736z"/>
</g>
<path style="fill:#79DCA0;" d="M255.33,327.342h-83.263l-16.787,7.218c0.512-27.807,23.468-49.941,51.276-49.429
	C230.871,285.585,251.401,303.345,255.33,327.342z"/>
<g>
	<path style="fill:#FFDB6F;" d="M335.395,32.657c-33.154-20.774-75.272-20.774-108.426,0l-9.082-14.118
		c38.576-24.719,88.014-24.719,126.59,0L335.395,32.657z"/>
	<path style="fill:#FFDB6F;" d="M172.705,162.696c-5.968-14.319-9.04-29.679-9.031-45.19h16.787
		c-0.008,13.304,2.627,26.473,7.756,38.744L172.705,162.696z"/>
	<path style="fill:#FFDB6F;" d="M281.181,235.014v-16.787c13.304,0.008,26.473-2.627,38.744-7.756l6.446,15.511
		C312.052,231.951,296.692,235.023,281.181,235.014z"/>
	<path style="fill:#FFDB6F;" d="M389.658,162.696l-15.511-6.446c5.128-12.271,7.764-25.441,7.756-38.744h16.787
		C398.698,133.017,395.626,148.377,389.658,162.696z"/>
</g>
<g>
	<path style="fill:#FF8030;" d="M281.181,201.441c-46.357,0-83.934-37.577-83.934-83.934s37.577-83.934,83.934-83.934
		s83.934,37.577,83.934,83.934C365.065,163.838,327.513,201.39,281.181,201.441z M281.181,50.359
		c-37.082,0-67.148,30.065-67.148,67.148s30.065,67.148,67.148,67.148s67.148-30.065,67.148-67.148
		C348.287,80.441,318.247,50.401,281.181,50.359z"/>
	<path style="fill:#FF8030;" d="M281.181,163.67c-8.427,0.092-16.627-2.761-23.174-8.074c-6.463-5.204-10.274-13.01-10.399-21.303
		h16.787c0.126,3.307,1.721,6.396,4.365,8.393c7.42,5.33,17.416,5.33,24.836,0c2.644-1.998,4.247-5.078,4.373-8.393
		c0-1.175-1.217-2.761-3.542-3.525l-31.761-10.593c-8.696-2.552-14.764-10.399-15.058-19.456
		c0.126-8.293,3.945-16.107,10.408-21.303c6.547-5.313,14.739-8.167,23.166-8.074c17.349-1.058,32.323,12.036,33.574,29.377h-16.787
		c0-6.824-7.688-12.59-16.787-12.59c-4.499-0.067-8.88,1.41-12.414,4.197c-2.644,1.998-4.247,5.078-4.373,8.393
		c0,1.175,1.217,2.761,3.542,3.525l31.761,10.593c8.696,2.552,14.764,10.399,15.058,19.456c-0.126,8.293-3.945,16.107-10.408,21.303
		C297.809,160.909,289.608,163.762,281.181,163.67z"/>
	<rect x="272.788" y="67.145" style="fill:#FF8030;" width="16.787" height="100.721"/>
</g>
<path d="M226.96,32.665c33.154-20.765,75.264-20.765,108.418,0l9.065-14.135c-38.568-24.702-87.98-24.702-126.548,0L226.96,32.665z"
	/>
<path d="M163.673,117.506c-0.025,15.528,3.055,30.905,9.048,45.232l15.494-6.48c-5.137-12.271-7.772-25.449-7.756-38.753H163.673z"
	/>
<path d="M281.181,235.014c15.519,0.034,30.888-3.047,45.207-9.04l-6.497-15.494c-12.254,5.137-25.415,7.772-38.711,7.747
	L281.181,235.014L281.181,235.014z"/>
<path d="M389.65,162.713c5.993-14.319,9.065-29.688,9.04-45.207h-16.787c0.025,13.295-2.61,26.465-7.747,38.727L389.65,162.713z"/>
<path d="M365.116,117.506c0-46.357-37.577-83.934-83.934-83.934s-83.934,37.577-83.934,83.934s37.577,83.934,83.934,83.934
	C327.513,201.39,365.065,163.838,365.116,117.506z M281.181,184.654c-37.082,0-67.148-30.065-67.148-67.148
	s30.065-67.148,67.148-67.148s67.148,30.065,67.148,67.148C348.287,154.572,318.247,184.612,281.181,184.654z"/>
<path d="M297.968,100.719h16.787c-0.747-14.168-11.205-25.927-25.18-28.336v-5.238h-16.787v5.238
	c-13.975,2.409-24.433,14.168-25.18,28.336c0.327,9.065,6.413,16.896,15.108,19.464l10.072,3.357v21.521
	c-4.667-1.628-7.957-5.842-8.393-10.769h-16.787c0.747,14.168,11.205,25.927,25.18,28.336v5.238h16.787v-5.238
	c13.975-2.409,24.433-14.168,25.18-28.336c-0.327-9.065-6.413-16.896-15.108-19.464l-10.072-3.357V89.934
	C294.25,91.562,297.532,95.784,297.968,100.719z M294.359,130.743c2.124,0.713,3.609,2.174,3.609,3.55
	c-0.436,4.935-3.718,9.157-8.393,10.786v-15.948L294.359,130.743z M268.004,104.27c-2.124-0.713-3.609-2.174-3.609-3.55
	c0.436-4.935,3.718-9.157,8.393-10.786v15.948L268.004,104.27z"/>
<path d="M396.23,170.326c-3.273-3.273-8.595-3.273-11.868,0L276.985,277.703L161.214,161.933c-3.273-3.273-8.595-3.273-11.868,0
	L40.231,271.047c-3.273,3.273-3.273,8.595,0,11.868l61.213,61.213H4.198v16.787h109.115c1.142,0,2.266-0.227,3.307-0.68l57.168-24.5
	h124.181v33.574H205.64c-4.633,0-8.393,3.76-8.393,8.393c0,3.273,1.905,6.253,4.877,7.621l109.115,50.361
	c2.745,1.251,5.951,0.932,8.393-0.839l145.366-104.901l22.1,22.1L320.043,495.211H274.29l-158.074-58.234
	c-0.932-0.344-1.914-0.52-2.904-0.52H4.198v16.787H111.81l158.074,58.234c0.932,0.344,1.914,0.52,2.904,0.52h50.361
	c2.006,0,3.937-0.713,5.456-2.023l176.262-151.082c3.517-3.013,3.928-8.318,0.915-11.835c-0.143-0.159-0.285-0.319-0.436-0.47
	l-27.64-27.64l27.64-27.64c3.273-3.273,3.273-8.595,0-11.868L396.23,170.326z M155.28,179.735l139.214,139.214h-32.575
	c-7.353-24.937-30.275-42.043-56.278-41.967c-29.704,0.176-54.666,22.36-58.326,51.838l-26.213,11.23l-63.068-63.068L155.28,179.735
	z M359.408,360.127l-43.864-43.864c3.181-17.92,18.785-30.955,36.981-30.888c20.816-0.042,37.72,16.804,37.754,37.619
	C390.313,341.208,377.32,356.837,359.408,360.127z M382.834,368.52l-8.721,6.295l-1.083-1.083c3.433-1.393,6.723-3.131,9.804-5.196
	L382.834,368.52L382.834,368.52z M172.067,318.949c-1.141,0-2.266,0.227-3.307,0.68l-2.04,0.839
	c8.284-21.504,32.441-32.222,53.945-23.938c10.467,4.037,18.868,12.112,23.317,22.419H172.067z M313.823,418.386l-69.968-32.29
	h62.506c4.633,0,8.393-3.76,8.393-8.393V339.21l45.576,45.576L313.823,418.386z M460.39,312.528l-73.963,53.424
	c23.56-18.776,27.447-53.105,8.662-76.666c-18.785-23.56-53.105-27.447-76.666-8.662c-7.294,5.808-12.976,13.396-16.501,22.033
	l-13.069-13.085l101.443-101.443l97.246,97.246L460.39,312.528z"/>
<g>
</g>
<g>
</g>
<g>
</g>
<g>
</g>
<g>
</g>
<g>
</g>
<g>
</g>
<g>
</g>
<g>
</g>
<g>
</g>
<g>
</g>
<g>
</g>
<g>
</g>
<g>
</g>
<g>
</g>
</svg>
