<?xml version="1.0"?>
<svg xmlns="http://www.w3.org/2000/svg" xmlns:xlink="http://www.w3.org/1999/xlink" version="1.1" id="Capa_1" x="0px" y="0px" viewBox="0 0 480 480" style="enable-background:new 0 0 480 480;" xml:space="preserve" width="512px" height="512px" class=""><g><g>
	<g>
		<path d="M472,48H320c-4.418,0-8,3.582-8,8v24h-24c-4.418,0-8,3.582-8,8v91.056L222.112,208H8c-4.418,0-8,3.582-8,8v208    c0,4.418,3.582,8,8,8h160c4.418,0,8-3.582,8-8v-22.56l86.68,14.448c0.436,0.073,0.878,0.11,1.32,0.112h120    c11.381-0.036,21.88-6.133,27.552-16H440c4.418,0,8-3.582,8-8v-24h24c4.418,0,8-3.582,8-8V56C480,51.582,476.418,48,472,48z     M160,416H16V224h144V416z M328,64h136v175.072c-0.148-5.046-1.498-10.13-4.179-14.819c-2.815-4.924-6.897-9.006-11.821-11.821V88    c0-4.418-3.582-8-8-8H328V64z M296,96h136v112h-16v-72c0-4.418-3.582-8-8-8s-8-3.582-8-8s-3.582-8-8-8h-56c-4.418,0-8,3.582-8,8    s-3.582,8-8,8s-8,3.582-8,8v72h-16V96z M400,142.632V208h-72v-65.368c6.827-2.432,12.2-7.805,14.632-14.632h42.736    C387.8,134.827,393.173,140.2,400,142.632z M432,384h-16c0.006-6.34-1.88-12.538-5.416-17.8    c16.677-5.849,25.455-24.11,19.606-40.787c-0.893-2.547-2.105-4.97-3.606-7.213c1.883-0.681,3.697-1.541,5.416-2.568V384z     M432,256h-32c-4.418,0-8,3.582-8,8s3.582,8,8,8h16c8.837,0,16,7.163,16,16s-7.163,16-16,16h-32c-4.418,0-8,3.582-8,8s3.582,8,8,8    h16c8.837,0,16,7.163,16,16s-7.163,16-16,16h-32c-4.418,0-8,3.582-8,8s3.582,8,8,8h16c8.837,0,16,7.163,16,16s-7.163,16-16,16    H264.664L176,385.224V224h48c1.241,0.001,2.465-0.286,3.576-0.84L280,196.944V216c0,4.418,3.582,8,8,8h144c8.837,0,16,7.163,16,16    S440.837,256,432,256z M448,352v-84.368c9.958-5.693,15.667-15.956,16-26.639V352H448z" data-original="#000000" class="active-path" data-old_color="#000000" fill="#FFFFFF"/>
	</g>
</g><g>
	<g>
		<path d="M112,336c-17.673,0-32,14.327-32,32c0,17.673,14.327,32,32,32s32-14.327,32-32C144,350.327,129.673,336,112,336z M112,384    c-8.837,0-16-7.163-16-16s7.163-16,16-16s16,7.163,16,16S120.837,384,112,384z" data-original="#000000" class="active-path" data-old_color="#000000" fill="#FFFFFF"/>
	</g>
</g></g> </svg>
