<?xml version="1.0"?>
<svg xmlns="http://www.w3.org/2000/svg" height="512px" viewBox="0 0 64 64" width="512px" class=""><g><rect fill="#ffb655" height="32" rx="4" width="54" x="3" y="9" data-original="#FFB655" class=""/><path d="m12 38a4 4 0 0 1 -4-4v-24a3.977 3.977 0 0 1 .141-1h-1.141a4 4 0 0 0 -4 4v24a4 4 0 0 0 4 4h46a3.989 3.989 0 0 0 3.859-3z" fill="#ffa733" data-original="#FFA733"/><path d="m39 49h3v-8h-8v3a5 5 0 0 0 5 5z" fill="#ffbcab" data-original="#FFBCAB" class=""/><circle cx="48" cy="32" fill="#f7941d" r="3" data-original="#F7941D"/><circle cx="43" cy="32" fill="#f15a29" r="3" data-original="#F15A29"/><path d="m3 15h54v6h-54z" fill="#58595b" data-original="#58595B"/><path d="m30 33a4 4 0 0 0 -4 4v4h-9l-3.6 8.088a2 2 0 0 0 .079 1.784l4.264 7.675a2 2 0 0 1 .252.971v2.482h16.005v-25a4 4 0 0 0 -4-4z" fill="#ffbcab" data-original="#FFBCAB" class=""/><path d="m51 3a10 10 0 1 0 10 10 10 10 0 0 0 -10-10z" fill="#7ed63e" data-original="#7ED63E"/><path d="m3 15h5v6h-5z" fill="#414042" data-original="#414042"/><path d="m62 13a10.993 10.993 0 0 0 -20.786-5h-34.214a5.006 5.006 0 0 0 -5 5v24a5.006 5.006 0 0 0 5 5h8.461l-2.561 5.771a5.024 5.024 0 0 0 .2 4.459l3.528 6.349a3.011 3.011 0 0 1 .372 1.458v.963a1 1 0 0 0 2 0v-.963a5.021 5.021 0 0 0 -.629-2.429l-3.528-6.349a3.018 3.018 0 0 1 -.119-2.676l2.926-6.583h7.35v7a1 1 0 0 0 2 0v-12a3 3 0 0 1 6 0v24a1 1 0 0 0 2 0v-12.54a5.969 5.969 0 0 0 4 1.54h3a1 1 0 0 0 1-1v-7h10a5.006 5.006 0 0 0 5-5v-15.521a10.986 10.986 0 0 0 4-8.479zm-11-9a9 9 0 1 1 -9 9 9.011 9.011 0 0 1 9-9zm-47 12h36.426a11 11 0 0 0 2.095 4h-38.521zm3-6h33.426a10.966 10.966 0 0 0 -.426 3c0 .338.021.67.051 1h-36.051v-1a3 3 0 0 1 3-3zm34 38h-2a4 4 0 0 1 -4-4v-2h6zm15-11a3 3 0 0 1 -3 3h-18v-3a5 5 0 0 0 -10 0v3h-18a3 3 0 0 1 -3-3v-15h40.7a10.923 10.923 0 0 0 11.3.786z" data-original="#000000" class="active-path" style="fill:#000000"/><path d="m48 28a3.966 3.966 0 0 0 -2.49.894 4 4 0 1 0 0 6.212 3.992 3.992 0 1 0 2.49-7.106zm-7 4a2 2 0 0 1 2-2 1.968 1.968 0 0 1 1.3.486 3.946 3.946 0 0 0 0 3.028 1.968 1.968 0 0 1 -1.3.486 2 2 0 0 1 -2-2zm7 2a2 2 0 1 1 2-2 2 2 0 0 1 -2 2z" data-original="#000000" class="active-path" style="fill:#000000"/><path d="m21 31h-2a1 1 0 0 0 0 2h2a1 1 0 0 0 0-2z" data-original="#000000" class="active-path" style="fill:#000000"/><path d="m15 31h-2a1 1 0 0 0 0 2h2a1 1 0 0 0 0-2z" data-original="#000000" class="active-path" style="fill:#000000"/><path d="m9 31h-2a1 1 0 0 0 0 2h2a1 1 0 0 0 0-2z" data-original="#000000" class="active-path" style="fill:#000000"/><path d="m48.293 17.707a1 1 0 0 0 1.414 0l7.071-7.071a1 1 0 1 0 -1.414-1.414l-6.364 6.364-2.293-2.293a1 1 0 0 0 -1.414 1.414z" data-original="#000000" class="active-path" style="fill:#000000"/></g> </svg>
