<?xml version="1.0"?>
<svg xmlns="http://www.w3.org/2000/svg" xmlns:xlink="http://www.w3.org/1999/xlink" version="1.1" id="Capa_1" x="0px" y="0px" viewBox="0 0 512 512" style="enable-background:new 0 0 512 512;" xml:space="preserve" width="512px" height="512px" class=""><g><g>
	<g>
		<path d="M130,452c-5.52,0-10,4.48-10,10c0,5.52,4.48,10,10,10s10-4.48,10-10C140,456.48,135.52,452,130,452z" data-original="#000000" class="active-path" data-old_color="#000000" fill="#FFFFFF"/>
	</g>
</g><g>
	<g>
		<path d="M98.112,270.153C96.233,267.545,93.214,266,90,266H50c-5.523,0-10,4.478-10,10c0,5.522,4.477,10,10,10h26.126    l-15.613,46.838c-1.747,5.239,1.085,10.902,6.325,12.649c1.049,0.35,2.115,0.516,3.164,0.516c4.187,0,8.089-2.65,9.485-6.841    l20-60C100.504,276.113,99.992,272.761,98.112,270.153z" data-original="#000000" class="active-path" data-old_color="#000000" fill="#FFFFFF"/>
	</g>
</g><g>
	<g>
		<path d="M218.112,270.153C216.233,267.545,213.214,266,210,266h-40c-5.523,0-10,4.478-10,10c0,5.522,4.477,10,10,10h26.126    l-15.613,46.838c-1.747,5.239,1.085,10.902,6.325,12.649c1.049,0.35,2.115,0.516,3.164,0.516c4.187,0,8.089-2.65,9.485-6.841    l20-60C220.504,276.113,219.992,272.761,218.112,270.153z" data-original="#000000" class="active-path" data-old_color="#000000" fill="#FFFFFF"/>
	</g>
</g><g>
	<g>
		<path d="M338.112,270.153C336.233,267.545,333.214,266,330,266h-40c-5.523,0-10,4.478-10,10c0,5.522,4.477,10,10,10h26.126    l-15.613,46.838c-1.747,5.239,1.085,10.902,6.325,12.649c1.049,0.35,2.115,0.516,3.164,0.516c4.187,0,8.089-2.65,9.485-6.841    l20-60C340.503,276.113,339.992,272.761,338.112,270.153z" data-original="#000000" class="active-path" data-old_color="#000000" fill="#FFFFFF"/>
	</g>
</g><g>
	<g>
		<path d="M250,452h-80c-5.523,0-10,4.478-10,10c0,5.522,4.477,10,10,10h80c5.523,0,10-4.478,10-10C260,456.478,255.523,452,250,452    z" data-original="#000000" class="active-path" data-old_color="#000000" fill="#FFFFFF"/>
	</g>
</g><g>
	<g>
		<path d="M462,166c-27.57,0-50,22.43-50,50c0,15.78,7.543,30.604,20,39.98V369h-52V233v-43C380,85.233,294.766,0,190,0    S0,85.233,0,190v43v249c0,16.542,13.458,30,30,30h60h200h60c16.542,0,30-13.458,30-30v-30h62c27.57,0,50-22.43,50-50V255.98    c12.457-9.376,20-24.2,20-39.98C512,188.43,489.57,166,462,166z M20,243h100v126H20V243z M280,492H100v-60h180V492z M360,442v40    c0,5.514-4.486,10-10,10h-50v-70c0-5.522-4.477-10-10-10H90c-5.523,0-10,4.478-10,10v70H30c-5.514,0-10-4.486-10-10v-93h110h120    h110V442z M140,369V243h100v126H140z M360,369H260V243h100V369z M360,223H20v-33C20,96.262,96.262,20,190,20s170,76.262,170,170    V223z M432,432h-52v-43h52V432z M472,402c0,13.036-8.361,24.152-20,28.28V379v-73h20V402z M472,286h-20v-21.017    c3.28,0.669,6.63,1.017,10,1.017s6.72-0.348,10-1.017V286z M477.001,241.989C472.455,244.613,467.268,246,462,246    s-10.455-1.387-15.001-4.011C437.747,236.632,432,226.674,432,216c0-16.542,13.458-30,30-30s30,13.458,30,30    C492,226.678,486.249,236.639,477.001,241.989z" data-original="#000000" class="active-path" data-old_color="#000000" fill="#FFFFFF"/>
	</g>
</g><g>
	<g>
		<path d="M190,40c-82.71,0-150,67.29-150,150c0,5.522,4.477,10,10,10h100h180c5.523,0,10-4.478,10-10C340,107.29,272.71,40,190,40z     M150,180H60.381C65.504,112.972,121.682,60,190,60s124.496,52.973,129.619,120H150z" data-original="#000000" class="active-path" data-old_color="#000000" fill="#FFFFFF"/>
	</g>
</g><g>
	<g>
		<path d="M190,80c-5.523,0-10,4.478-10,10v40c0,5.522,4.477,10,10,10s10-4.478,10-10V90C200,84.478,195.523,80,190,80z" data-original="#000000" class="active-path" data-old_color="#000000" fill="#FFFFFF"/>
	</g>
</g><g>
	<g>
		<path d="M154.641,140.499l-28.28-28.28c-3.905-3.903-10.237-3.904-14.142,0c-3.905,3.905-3.906,10.237,0,14.143l28.28,28.28    c1.953,1.952,4.512,2.929,7.071,2.929s5.119-0.977,7.071-2.929C158.546,150.737,158.547,144.405,154.641,140.499z" data-original="#000000" class="active-path" data-old_color="#000000" fill="#FFFFFF"/>
	</g>
</g><g>
	<g>
		<path d="M267.781,112.218c-3.905-3.904-10.237-3.904-14.142,0l-28.28,28.28c-3.905,3.905-3.905,10.237,0,14.143    c1.953,1.953,4.512,2.929,7.071,2.929c2.559,0,5.119-0.977,7.071-2.929l28.28-28.28    C271.686,122.456,271.686,116.124,267.781,112.218z" data-original="#000000" class="active-path" data-old_color="#000000" fill="#FFFFFF"/>
	</g>
</g></g> </svg>
