<?xml version="1.0"?>
<svg xmlns="http://www.w3.org/2000/svg" xmlns:xlink="http://www.w3.org/1999/xlink" version="1.1" id="Layer_1" x="0px" y="0px" viewBox="0 0 512 512" style="enable-background:new 0 0 512 512;" xml:space="preserve" width="512px" height="512px" class=""><g><g>
	<g>
		<path d="M386.395,139.102c-4.394-4.785-10.64-7.531-17.137-7.531h-11.945l1.421-21.792l1.764-27.056    c1.362-20.886-5.77-40.8-20.08-56.074C326.108,11.375,306.7,2.964,285.771,2.964h-59.546c-20.93,0-40.337,8.411-54.647,23.685    c-14.31,15.274-21.441,35.187-20.08,56.074l2.647,40.581l0.539,8.267h-12.966c-6.497,0-12.743,2.745-17.137,7.531    c-4.394,4.786-6.596,11.244-6.041,17.718l3.885,45.267c0.802,9.357,6.924,16.917,15.265,19.895v42.178    c0,5.633,4.566,10.199,10.199,10.199c5.633,0,10.199-4.566,10.199-10.199v-40.797h2.74c3.684,30.648,21.696,57.47,48.968,72.471    c14.468,7.957,30.333,11.935,46.204,11.935c15.868,0,31.741-3.979,46.204-11.935c13.855-7.62,25.312-18.297,33.726-30.97    c7.017-0.721,13.53-2.663,19.504-5.857c29.474-15.762,32.991-55.293,33.126-56.968c0-0.001,0-0.003,0-0.004l3.876-45.216    C392.991,150.346,390.789,143.888,386.395,139.102z M145.601,202.964c-1.498,0-2.725-1.126-2.853-2.619l-3.881-45.268    c-0.089-1.037,0.355-1.758,0.744-2.182c0.388-0.423,1.069-0.927,2.109-0.927h14.296l3.326,50.996H145.601z M171.857,81.395    c-0.991-15.197,4.197-29.686,14.609-40.8c10.411-11.113,24.533-17.233,39.762-17.233h59.546c1.321,0,2.63,0.063,3.933,0.154    l-15.8,42.132c-2.554,4.244-25.729,39.11-100.073,46.059L171.857,81.395z M331.319,216.737c-0.641,9.822-3.143,19.212-7.24,27.77    c-8.751-0.963-18.733-4.198-29.888-9.684c0.369-1.724,0.567-3.51,0.567-5.342c0-14.06-11.438-25.498-25.498-25.498    c-14.06,0-25.498,11.438-25.498,25.498c0,14.06,11.438,25.498,25.498,25.498c4.656,0,9.021-1.261,12.782-3.449    c10.469,5.392,20.329,9.199,29.547,11.396c-5.46,5.922-11.913,11.019-19.214,15.035c-22.776,12.528-49.972,12.528-72.748,0    c-22.699-12.485-37.258-35.372-38.944-61.223l-5.522-84.68c57.446-5.269,88.777-26.267,104.215-41.341    c4.128,4.734,10.026,9.094,17.645,13.029c8.233,4.253,21.935,8.725,40.798,13.319L331.319,216.737z M274.359,229.482    c0,2.812-2.288,5.1-5.1,5.1s-5.1-2.288-5.1-5.1c0-2.812,2.288-5.1,5.1-5.1S274.359,226.67,274.359,229.482z M340.143,81.394    l-0.977,14.994c-18.901-4.751-28.215-8.404-32.783-10.764c-11.122-5.746-13.632-10.499-13.699-11.958    c0.008-0.02,0.013-0.041,0.02-0.061c0.005-0.014,0.012-0.028,0.017-0.042l16.798-44.794c5.927,2.873,11.346,6.844,16.014,11.826    C335.947,51.708,341.135,66.198,340.143,81.394z M347.691,239.918c1.629-5.355,2.801-10.889,3.482-16.555h10.464    C358.564,229.66,354.111,235.858,347.691,239.918z M368.231,200.345c-0.128,1.493-1.354,2.619-2.853,2.619h-12.72l3.326-50.996    h13.275c1.04,0,1.722,0.504,2.109,0.927c0.389,0.423,0.832,1.144,0.744,2.181L368.231,200.345z" data-original="#000000" class="active-path" data-old_color="#000000" fill="#FFFFFF"/>
	</g>
</g><g>
	<g>
		<path d="M511.837,497.019l-9.862-54.436c-5.527-30.507-20.03-58.2-41.943-80.085c-21.657-21.63-48.95-36.047-78.93-41.692    c-9.24-1.74-18.691-2.622-28.089-2.622h-29.699c-2.705,0-5.299,1.075-7.212,2.987L256,381.273l-60.102-60.103    c-1.912-1.912-4.507-2.987-7.212-2.987h-29.7c-9.394,0-18.844,0.882-28.087,2.622c-0.001,0-0.001,0-0.002,0    c-29.979,5.645-57.273,20.062-78.93,41.692c-21.912,21.885-36.416,49.578-41.943,80.085l-9.862,54.437    c-0.539,2.975,0.27,6.035,2.208,8.355c1.938,2.32,4.805,3.661,7.828,3.661h491.602c3.023,0,5.89-1.341,7.828-3.661    C511.567,503.054,512.375,499.995,511.837,497.019z M263.213,402.908l64.326-64.327h25.476c1.321,0,2.642,0.02,3.963,0.06    L256,439.619l-14.749-14.749L263.213,402.908z M158.986,338.581h25.475l57.115,57.116l-14.749,14.749l-71.803-71.804    C156.345,338.6,157.666,338.581,158.986,338.581z M22.412,488.638l7.685-42.418c9.295-51.307,48.902-92.597,99.378-104.278    l119.313,119.313c0.249,0.249,0.508,0.482,0.775,0.7c3.739,3.05,9.136,3.05,12.875,0c0.267-0.218,0.525-0.451,0.775-0.7    l119.313-119.313c50.475,11.681,90.082,52.971,99.378,104.278l7.685,42.418H22.412z" data-original="#000000" class="active-path" data-old_color="#000000" fill="#FFFFFF"/>
	</g>
</g><g>
	<g>
		<path d="M147.888,284.558c-5.633,0-10.199,4.566-10.199,10.199v4.08c0,5.633,4.566,10.199,10.199,10.199    c5.633,0,10.199-4.566,10.199-10.199v-4.08C158.088,289.124,153.522,284.558,147.888,284.558z" data-original="#000000" class="active-path" data-old_color="#000000" fill="#FFFFFF"/>
	</g>
</g></g> </svg>
