<?xml version="1.0"?>
<svg xmlns="http://www.w3.org/2000/svg" height="512px" viewBox="-4 0 480 480.04639" width="512px" class=""><g><path d="m456.023438 192.046875h-432c-4.417969 0-8 3.582031-8 8v272c0 4.417969 3.582031 8 8 8h288c4.417968 0 8-3.582031 8-8s-3.582032-8-8-8h-280v-256h416v256h-104c-4.417969 0-8 3.582031-8 8s3.582031 8 8 8h112c4.417968 0 8-3.582031 8-8v-272c0-4.417969-3.582032-8-8-8zm0 0" data-original="#000000" class="active-path" data-old_color="#000000" fill="#2E9DFA"/><path d="m179.863281 312.765625c-4.285156-1.054687-8.617187 1.558594-9.679687 5.839844-1.441406 5.703125-2.167969 11.558593-2.160156 17.441406-.03125 34.351563 24.210937 63.9375 57.894531 70.667969 33.6875 6.730468 67.433593-11.277344 80.605469-43 13.167968-31.726563 2.089843-68.339844-26.457032-87.445313-28.550781-19.101562-66.617187-15.378906-90.921875 8.898438-2.285156 1.953125-3.277343 5.023437-2.574219 7.945312.703126 2.921875 2.984376 5.203125 5.90625 5.90625 2.921876.703125 5.992188-.289062 7.945313-2.574219 21.761719-21.980468 57.21875-22.160156 79.203125-.398437 21.980469 21.757813 22.160156 57.21875.398438 79.199219-.3125-8.988282-5.625-17.046875-13.761719-20.878906 3.75-5.375 5.761719-11.769532 5.761719-18.320313 0-17.671875-14.328126-32-32-32-17.671876 0-32 14.328125-32 32 .023437 6.558594 2.0625 12.957031 5.839843 18.320313-8.167969 3.808593-13.511719 11.871093-13.839843 20.878906-10.257813-10.46875-16.003907-24.542969-16-39.199219-.007813-4.585937.554687-9.15625 1.679687-13.601563 1.058594-4.285156-1.554687-8.617187-5.839844-9.679687zm36.160157 73.761719v-10.480469c0-4.417969 3.582031-8 8-8h32c4.417968 0 8 3.582031 8 8v10.480469c-15.15625 7.355468-32.847657 7.355468-48 0zm24-66.480469c8.835937 0 16 7.164063 16 16s-7.164063 16-16 16c-8.835938 0-16-7.164063-16-16s7.164062-16 16-16zm0 0" data-original="#000000" class="active-path" data-old_color="#000000" fill="#2E9DFA"/><path d="m296.023438 224.046875h-192c-4.417969 0-8 3.582031-8 8 0 22.089844-17.910157 40-40 40-4.417969 0-8 3.582031-8 8v112c0 4.417969 3.582031 8 8 8 22.089843 0 40 17.90625 40 40 0 4.417969 3.582031 8 8 8h272c4.417968 0 8-3.582031 8-8 0-22.09375 17.910156-40 40-40 4.417968 0 8-3.582031 8-8v-112c0-4.417969-3.582032-8-8-8-22.089844 0-40-17.910156-40-40 0-4.417969-3.582032-8-8-8h-48c-4.417969 0-8 3.582031-8 8s3.582031 8 8 8h40.558593c3.542969 24.582031 22.855469 43.898437 47.441407 47.441406v97.117188c-24.585938 3.542969-43.898438 22.855469-47.441407 47.441406h-257.117187c-3.542969-24.585937-22.859375-43.898437-47.441406-47.441406v-97.117188c24.582031-3.542969 43.898437-22.859375 47.441406-47.441406h184.558594c4.417968 0 8-3.582031 8-8s-3.582032-8-8-8zm0 0" data-original="#000000" class="active-path" data-old_color="#000000" fill="#2E9DFA"/><path d="m384.023438 344.046875c4.417968 0 8-3.582031 8-8s-3.582032-8-8-8h-32c-4.417969 0-8 3.582031-8 8s3.582031 8 8 8zm0 0" data-original="#000000" class="active-path" data-old_color="#000000" fill="#2E9DFA"/><path d="m96.023438 328.046875c-4.417969 0-8 3.582031-8 8s3.582031 8 8 8h32c4.417968 0 8-3.582031 8-8s-3.582032-8-8-8zm0 0" data-original="#000000" class="active-path" data-old_color="#000000" fill="#2E9DFA"/><path d="m470.421875 67.246094-48-64c-1.507813-2.015625-3.878906-3.199219-6.398437-3.199219-2.519532 0-4.890626 1.183594-6.398438 3.199219l-48 64c-1.820312 2.425781-2.113281 5.667968-.757812 8.378906 1.355468 2.710938 4.125 4.421875 7.15625 4.421875h16v72c0 4.417969 3.582031 8 8 8 4.417968 0 8-3.582031 8-8v-80c0-4.417969-3.582032-8-8-8h-8l32-42.640625 32 42.640625h-8c-4.417969 0-8 3.582031-8 8v96c0 4.417969 3.582031 8 8 8 4.417968 0 8-3.582031 8-8v-88h16c3.03125 0 5.800781-1.710937 7.15625-4.421875 1.355468-2.710938 1.0625-5.953125-.757813-8.378906zm0 0" data-original="#000000" class="active-path" data-old_color="#000000" fill="#2E9DFA"/><path d="m24.023438 136.046875h16v32c0 4.417969 3.582031 8 8 8 4.417968 0 8-3.582031 8-8v-40c0-4.417969-3.582032-8-8-8h-8l32-42.640625 32 42.640625h-8c-4.417969 0-8 3.582031-8 8v24c0 4.417969 3.582031 8 8 8 4.417968 0 8-3.582031 8-8v-16h48v32c0 4.417969 3.582031 8 8 8 4.417968 0 8-3.582031 8-8v-40c0-4.417969-3.582032-8-8-8h-20.71875l100.71875-100.71875 100.71875 100.71875h-20.71875c-4.417969 0-8 3.582031-8 8v40c0 4.417969 3.582031 8 8 8 4.417968 0 8-3.582031 8-8v-32h32c3.230468-.015625 6.132812-1.972656 7.359374-4.960937 1.253907-2.980469.589844-6.417969-1.679687-8.71875l-120-120c-1.503906-1.515626-3.546875-2.367188-5.679687-2.367188-2.132813 0-4.179688.851562-5.679688 2.367188l-113.441406 113.519531-42.480469-56.640625c-1.507813-2.015625-3.878906-3.199219-6.398437-3.199219-2.519532 0-4.890626 1.183594-6.398438 3.199219l-48 64c-1.820312 2.425781-2.113281 5.667968-.757812 8.378906 1.355468 2.710938 4.125 4.421875 7.15625 4.421875zm0 0" data-original="#000000" class="active-path" data-old_color="#000000" fill="#2E9DFA"/><path d="m136.023438 64.046875c4.417968 0 8-3.582031 8-8v-32c0-4.417969-3.582032-8-8-8-4.417969 0-8 3.582031-8 8v32c0 4.417969 3.582031 8 8 8zm0 0" data-original="#000000" class="active-path" data-old_color="#000000" fill="#2E9DFA"/><path d="m16.023438 8.046875c0-4.417969-3.582032-8-8-8-4.417969 0-8.0000005 3.582031-8.0000005 8v32c0 4.417969 3.5820315 8 8.0000005 8 4.417968 0 8-3.582031 8-8zm0 0" data-original="#000000" class="active-path" data-old_color="#000000" fill="#2E9DFA"/><path d="m336.023438 64.046875c4.417968 0 8-3.582031 8-8v-32c0-4.417969-3.582032-8-8-8-4.417969 0-8 3.582031-8 8v32c0 4.417969 3.582031 8 8 8zm0 0" data-original="#000000" class="active-path" data-old_color="#000000" fill="#2E9DFA"/><path d="m200.023438 144.046875v24c0 4.417969 3.582031 8 8 8 4.417968 0 8-3.582031 8-8v-24c0-4.417969-3.582032-8-8-8-4.417969 0-8 3.582031-8 8zm0 0" data-original="#000000" class="active-path" data-old_color="#000000" fill="#2E9DFA"/><path d="m264.023438 104.046875v40c0 4.417969 3.582031 8 8 8 4.417968 0 8-3.582031 8-8v-40c0-4.417969-3.582032-8-8-8-4.417969 0-8 3.582031-8 8zm0 0" data-original="#000000" class="active-path" data-old_color="#000000" fill="#2E9DFA"/></g> </svg>
