<svg height="512" viewBox="0 0 64 64" width="512" xmlns="http://www.w3.org/2000/svg"><path d="m50 32a18.017 18.017 0 1 1 -4.22-11.57 17.918 17.918 0 0 1 4.22 11.57z" fill="#ff6243"/><circle cx="32" cy="32" fill="#ffc477" r="14"/><circle cx="32" cy="32" fill="#ffdaaa" r="12"/><path d="m7.09 30a24.961 24.961 0 0 1 13.13-20.04l1.05 2.87 8.56-8.1-12.1-1.56 1.1 3a28.931 28.931 0 0 0 -15.75 23.83z" fill="#7ed63e"/><path d="m9.96 43.78 2.87-1.05-8.1-8.56-1.56 12.1 3-1.1a28.931 28.931 0 0 0 23.83 15.75v-4.01a24.961 24.961 0 0 1 -20.04-13.13z" fill="#5eac24"/><path d="m43.78 54.04-1.05-2.87-8.56 8.1 12.1 1.56-1.1-3a28.931 28.931 0 0 0 15.75-23.83h-4.01a24.961 24.961 0 0 1 -13.13 20.04z" fill="#7ed63e"/><path d="m59.27 29.83 1.56-12.1-3 1.1a28.931 28.931 0 0 0 -23.83-15.75v4.01a24.961 24.961 0 0 1 20.04 13.13l-2.87 1.05z" fill="#5eac24"/><path d="m32 27a2.006 2.006 0 0 1 2 2h3a5.029 5.029 0 0 0 -3-4.59v-2.41h-3v2.1a5 5 0 0 0 1 9.9 2 2 0 1 1 -2 2h-3a5.029 5.029 0 0 0 3 4.59v2.41h3v-2.1a5 5 0 0 0 -1-9.9 2 2 0 0 1 0-4z" fill="#ff5023"/></svg>