<?xml version="1.0"?>
<svg xmlns="http://www.w3.org/2000/svg" id="Capa_1" enable-background="new 0 0 499.999 499.999" height="512px" viewBox="0 0 499.999 499.999" width="512px" class=""><g><path d="m250 499.999c-137.848 0-250-112.152-250-250s112.152-249.999 250-249.999 250 112.152 250 250-112.153 249.999-250 249.999zm0-468.749c-120.62 0-218.75 98.129-218.75 218.75s98.129 218.75 218.75 218.75 218.749-98.13 218.749-218.75-98.129-218.75-218.749-218.75z" data-original="#000000" class="active-path" data-old_color="#000000" fill="#FFFFFF"/><path d="m250 374.999c-68.924 0-125-56.076-125-125s56.076-125 125-125 125 56.076 125 125-56.077 125-125 125zm0-218.749c-51.697 0-93.75 42.053-93.75 93.75s42.053 93.75 93.75 93.75 93.75-42.053 93.75-93.75-42.054-93.75-93.75-93.75z" data-original="#000000" class="active-path" data-old_color="#000000" fill="#FFFFFF"/></g> </svg>
