<svg xmlns="http://www.w3.org/2000/svg" height="512pt" version="1.1" viewBox="0 0 512 512" width="512pt">
<g id="surface1">
<path d="M 504.507812 292.214844 L 504.507812 178.324219 C 504.507812 134.1875 468.726562 98.402344 424.585938 98.402344 C 380.445312 98.402344 344.664062 134.1875 344.664062 178.324219 L 344.664062 292.214844 Z M 504.507812 292.214844 " style=" stroke:none;fill-rule:nonzero;fill:rgb(14.901961%,34.901961%,85.882353%);fill-opacity:1;" />
<path d="M 372.636719 292.214844 L 476.535156 292.214844 L 476.535156 511 L 372.636719 511 Z M 372.636719 292.214844 " style=" stroke:none;fill-rule:nonzero;fill:rgb(24.313725%,19.215686%,23.921569%);fill-opacity:1;" />
<path d="M 372.636719 292.214844 L 476.535156 292.214844 L 476.535156 312.195312 L 372.636719 312.195312 Z M 372.636719 292.214844 " style=" stroke:none;fill-rule:nonzero;fill:rgb(20%,14.509804%,20%);fill-opacity:1;" />
<path d="M 344.664062 292.214844 L 344.664062 318.6875 C 344.664062 328.34375 352.492188 336.171875 362.144531 336.171875 C 371.800781 336.171875 379.628906 328.34375 379.628906 318.6875 L 379.628906 292.214844 Z M 344.664062 292.214844 " style=" stroke:none;fill-rule:nonzero;fill:rgb(92.54902%,80.784314%,57.647059%);fill-opacity:1;" />
<path d="M 469.542969 292.214844 L 469.542969 318.6875 C 469.542969 328.34375 477.367188 336.171875 487.023438 336.171875 C 496.679688 336.171875 504.507812 328.34375 504.507812 318.6875 L 504.507812 292.214844 Z M 469.542969 292.214844 " style=" stroke:none;fill-rule:nonzero;fill:rgb(92.54902%,80.784314%,57.647059%);fill-opacity:1;" />
<path d="M 344.664062 261.246094 L 379.628906 261.246094 L 379.628906 292.214844 L 344.664062 292.214844 Z M 344.664062 261.246094 " style=" stroke:none;fill-rule:nonzero;fill:rgb(89.411765%,92.941176%,98.431373%);fill-opacity:1;" />
<path d="M 469.542969 261.246094 L 504.507812 261.246094 L 504.507812 292.214844 L 469.542969 292.214844 Z M 469.542969 261.246094 " style=" stroke:none;fill-rule:nonzero;fill:rgb(89.411765%,92.941176%,98.431373%);fill-opacity:1;" />
<path d="M 277.730469 211.292969 L 214.789062 211.292969 L 214.789062 171.332031 L 277.730469 171.332031 C 288.765625 171.332031 297.710938 180.277344 297.710938 191.3125 C 297.710938 202.347656 288.765625 211.292969 277.730469 211.292969 Z M 277.730469 211.292969 " style=" stroke:none;fill-rule:nonzero;fill:rgb(84.313725%,28.627451%,27.843137%);fill-opacity:1;" />
<path d="M 384.625 7.492188 L 464.546875 7.492188 L 464.546875 43.457031 L 384.625 43.457031 Z M 384.625 7.492188 " style=" stroke:none;fill-rule:nonzero;fill:rgb(14.901961%,34.901961%,85.882353%);fill-opacity:1;" />
<path d="M 424.585938 128.375 C 441.183594 128.375 456.222656 121.589844 467.085938 110.652344 C 454.773438 102.902344 440.210938 98.402344 424.585938 98.402344 C 408.960938 98.402344 394.394531 102.902344 382.082031 110.652344 C 392.949219 121.589844 407.988281 128.375 424.585938 128.375 Z M 424.585938 128.375 " style=" stroke:none;fill-rule:nonzero;fill:rgb(6.666667%,28.627451%,78.823529%);fill-opacity:1;" />
<path d="M 384.625 43.457031 L 384.625 68.433594 C 384.625 90.503906 402.515625 108.394531 424.585938 108.394531 C 446.65625 108.394531 464.546875 90.503906 464.546875 68.433594 L 464.546875 43.457031 Z M 384.625 43.457031 " style=" stroke:none;fill-rule:nonzero;fill:rgb(92.54902%,80.784314%,57.647059%);fill-opacity:1;" />
<path d="M 253.753906 225.28125 L 254.542969 225.257812 L 175.828125 106.394531 L 0 106.394531 L 0 251.253906 L 216.789062 251.253906 Z M 253.753906 225.28125 " style=" stroke:none;fill-rule:nonzero;fill:rgb(43.921569%,64.705882%,95.294118%);fill-opacity:1;" />
<path d="M 253.753906 225.28125 L 216.789062 251.253906 L 0 251.253906 L 0 410.097656 L 245.761719 410.097656 C 262.3125 410.097656 275.730469 396.679688 275.730469 380.128906 L 275.730469 257.25 L 254.542969 225.257812 Z M 253.753906 225.28125 " style=" stroke:none;fill-rule:nonzero;fill:rgb(84.313725%,28.627451%,27.843137%);fill-opacity:1;" />
<path d="M 219.386719 336.980469 L 161.441406 336.980469 C 151.730469 336.980469 143.859375 329.105469 143.859375 319.394531 C 143.859375 311.027344 149.757812 303.816406 157.960938 302.160156 L 214.757812 290.6875 C 229.234375 287.761719 242.765625 298.832031 242.765625 313.601562 C 242.761719 326.511719 232.296875 336.980469 219.386719 336.980469 Z M 219.386719 336.980469 " style=" stroke:none;fill-rule:nonzero;fill:rgb(98.823529%,74.509804%,34.117647%);fill-opacity:1;" />
<path d="M 185.820312 504.007812 C 210.097656 504.007812 229.777344 484.328125 229.777344 460.050781 L 229.777344 410.097656 L 141.863281 410.097656 L 141.863281 460.050781 C 141.863281 484.328125 161.542969 504.007812 185.820312 504.007812 Z M 185.820312 504.007812 " style=" stroke:none;fill-rule:nonzero;fill:rgb(24.313725%,19.215686%,23.921569%);fill-opacity:1;" />
<path d="M 245.761719 389.121094 L 0 389.121094 L 0 410.097656 L 245.761719 410.097656 C 262.3125 410.097656 275.730469 396.679688 275.730469 380.128906 L 275.730469 359.148438 C 275.730469 375.703125 262.3125 389.121094 245.761719 389.121094 Z M 245.761719 389.121094 " style=" stroke:none;fill-rule:nonzero;fill:rgb(80.784314%,21.176471%,21.176471%);fill-opacity:1;" />
<path d="M 141.863281 410.097656 L 229.777344 410.097656 L 229.777344 430.078125 L 141.863281 430.078125 Z M 141.863281 410.097656 " style=" stroke:none;fill-rule:nonzero;fill:rgb(20%,14.509804%,20%);fill-opacity:1;" />
<path d="M 384.625 43.457031 L 464.546875 43.457031 L 464.546875 63.4375 L 384.625 63.4375 Z M 384.625 43.457031 " style=" stroke:none;fill-rule:nonzero;fill:rgb(89.803922%,74.117647%,46.27451%);fill-opacity:1;" />
<path d="M 460.972656 98.851562 C 467.875 90.609375 472.039062 80 472.039062 68.433594 L 472.039062 0 L 377.132812 0 L 377.132812 68.433594 C 377.132812 79.996094 381.292969 90.605469 388.195312 98.847656 C 378.777344 103.167969 370.136719 109.148438 362.769531 116.515625 C 346.261719 133.035156 337.171875 154.988281 337.171875 178.324219 L 337.171875 318.6875 C 337.171875 332.460938 348.375 343.664062 362.144531 343.664062 C 363.15625 343.664062 364.15625 343.597656 365.144531 343.480469 L 365.144531 511 L 380.128906 511 L 380.128906 336.003906 C 384.636719 331.324219 387.121094 325.195312 387.121094 318.6875 L 387.121094 299.707031 L 462.046875 299.707031 L 462.046875 318.6875 C 462.046875 325.402344 464.71875 331.503906 469.042969 335.996094 L 469.042969 511 L 484.027344 511 L 484.027344 343.480469 C 485.011719 343.597656 486.007812 343.664062 487.023438 343.664062 C 493.691406 343.664062 499.960938 341.066406 504.679688 336.34375 C 509.402344 331.625 512 325.355469 512 318.6875 L 512 178.324219 C 512 143.976562 491.542969 112.910156 460.972656 98.851562 Z M 392.117188 14.984375 L 457.054688 14.984375 L 457.054688 35.964844 L 392.117188 35.964844 Z M 392.117188 50.949219 L 457.054688 50.949219 L 457.054688 68.433594 C 457.054688 86.335938 442.488281 100.902344 424.585938 100.902344 C 406.683594 100.902344 392.117188 86.335938 392.117188 68.433594 Z M 372.136719 318.6875 C 372.136719 321.351562 371.09375 323.859375 369.207031 325.746094 C 367.316406 327.636719 364.808594 328.679688 362.144531 328.679688 C 356.636719 328.679688 352.15625 324.199219 352.15625 318.6875 L 352.15625 299.707031 L 372.136719 299.707031 Z M 372.136719 284.722656 L 352.15625 284.722656 L 352.15625 268.738281 L 372.136719 268.738281 Z M 497.015625 318.6875 C 497.015625 321.351562 495.972656 323.859375 494.082031 325.746094 C 492.195312 327.636719 489.6875 328.679688 487.023438 328.679688 C 481.515625 328.679688 477.035156 324.199219 477.035156 318.6875 L 477.035156 299.707031 L 497.015625 299.707031 Z M 497.015625 284.722656 L 477.035156 284.722656 L 477.035156 268.738281 L 497.015625 268.738281 Z M 497.015625 253.753906 L 477.035156 253.753906 L 477.035156 172.332031 L 462.046875 172.332031 L 462.046875 284.722656 L 387.121094 284.722656 L 387.121094 172.332031 L 372.136719 172.332031 L 372.136719 253.753906 L 352.15625 253.753906 L 352.15625 178.324219 C 352.15625 158.988281 359.691406 140.796875 373.367188 127.109375 C 381.21875 119.257812 390.8125 113.300781 401.273438 109.742188 C 408.164062 113.644531 416.117188 115.886719 424.585938 115.886719 C 433.058594 115.886719 441.011719 113.644531 447.90625 109.738281 C 476.976562 119.621094 497.015625 147.371094 497.015625 178.324219 Z M 497.015625 253.753906 " style=" stroke:none;fill-rule:nonzero;fill:rgb(0%,0%,0%);fill-opacity:1;" />
<path d="M 417.09375 329.179688 L 432.078125 329.179688 L 432.078125 511 L 417.09375 511 Z M 417.09375 329.179688 " style=" stroke:none;fill-rule:nonzero;fill:rgb(0%,0%,0%);fill-opacity:1;" />
<path d="M 219.386719 344.472656 C 236.40625 344.472656 250.253906 330.625 250.253906 313.601562 C 250.253906 304.304688 246.128906 295.597656 238.933594 289.710938 C 231.738281 283.824219 222.386719 281.503906 213.273438 283.34375 L 156.476562 294.816406 C 144.824219 297.171875 136.367188 307.507812 136.367188 319.398438 C 136.367188 333.222656 147.613281 344.472656 161.441406 344.472656 Z M 151.351562 319.394531 C 151.351562 314.613281 154.753906 310.453125 159.445312 309.507812 L 216.242188 298.03125 C 217.296875 297.820312 218.355469 297.714844 219.410156 297.714844 C 223.039062 297.714844 226.574219 298.960938 229.445312 301.308594 C 233.148438 304.339844 235.269531 308.820312 235.269531 313.605469 C 235.269531 322.363281 228.144531 329.488281 219.386719 329.488281 L 161.441406 329.488281 C 155.878906 329.484375 151.351562 324.960938 151.351562 319.394531 Z M 151.351562 319.394531 " style=" stroke:none;fill-rule:nonzero;fill:rgb(0%,0%,0%);fill-opacity:1;" />
<path d="M 0 300.039062 L 109.894531 300.039062 L 109.894531 315.023438 L 0 315.023438 Z M 0 300.039062 " style=" stroke:none;fill-rule:nonzero;fill:rgb(0%,0%,0%);fill-opacity:1;" />
<path d="M 0 331.675781 L 109.894531 331.675781 L 109.894531 346.660156 L 0 346.660156 Z M 0 331.675781 " style=" stroke:none;fill-rule:nonzero;fill:rgb(0%,0%,0%);fill-opacity:1;" />
<path d="M 0 362.644531 L 109.894531 362.644531 L 109.894531 377.632812 L 0 377.632812 Z M 0 362.644531 " style=" stroke:none;fill-rule:nonzero;fill:rgb(0%,0%,0%);fill-opacity:1;" />
<path d="M 277.730469 163.839844 L 222.855469 163.839844 L 179.851562 98.902344 L 0 98.902344 L 0 113.890625 L 171.804688 113.890625 L 244.03125 222.953125 L 214.417969 243.761719 L 0 243.761719 L 0 258.746094 L 219.15625 258.746094 L 252.308594 235.453125 L 268.238281 259.503906 L 268.238281 380.128906 C 268.238281 392.523438 258.152344 402.605469 245.761719 402.605469 L 0 402.605469 L 0 417.59375 L 134.367188 417.59375 L 134.367188 460.050781 C 134.367188 488.421875 157.449219 511.5 185.820312 511.5 C 214.1875 511.5 237.269531 488.421875 237.269531 460.050781 L 237.269531 417.59375 L 245.761719 417.59375 C 266.417969 417.59375 283.222656 400.785156 283.222656 380.128906 L 283.222656 254.992188 L 259.246094 218.785156 L 277.730469 218.785156 C 292.878906 218.785156 305.203125 206.460938 305.203125 191.3125 C 305.203125 176.164062 292.878906 163.839844 277.730469 163.839844 Z M 222.28125 460.050781 C 222.28125 480.15625 205.925781 496.515625 185.820312 496.515625 C 165.710938 496.515625 149.355469 480.15625 149.355469 460.050781 L 149.355469 417.59375 L 222.28125 417.59375 Z M 277.730469 203.800781 L 249.320312 203.800781 L 232.78125 178.824219 L 277.730469 178.824219 C 284.613281 178.824219 290.214844 184.425781 290.214844 191.3125 C 290.214844 198.199219 284.613281 203.800781 277.730469 203.800781 Z M 277.730469 203.800781 " style=" stroke:none;fill-rule:nonzero;fill:rgb(0%,0%,0%);fill-opacity:1;" />
<path d="M 39.765625 203.105469 L 29.167969 192.507812 L 60.25 161.425781 L 70.847656 172.023438 Z M 81.445312 161.425781 L 70.847656 150.828125 L 81.441406 140.234375 L 92.039062 150.832031 Z M 81.445312 161.425781 " style=" stroke:none;fill-rule:nonzero;fill:rgb(100%,100%,100%);fill-opacity:1;" />
<path d="M 93.710938 203.105469 L 83.117188 192.507812 L 114.199219 161.425781 L 124.792969 172.023438 Z M 135.390625 161.425781 L 124.792969 150.828125 L 135.390625 140.234375 L 145.988281 150.832031 Z M 135.390625 161.425781 " style=" stroke:none;fill-rule:nonzero;fill:rgb(100%,100%,100%);fill-opacity:1;" />
<path d="M 226.777344 367.640625 L 241.765625 367.640625 L 241.765625 382.625 L 226.777344 382.625 Z M 226.777344 367.640625 " style=" stroke:none;fill-rule:nonzero;fill:rgb(100%,100%,100%);fill-opacity:1;" />
<path d="M 434.074219 244.261719 L 419.089844 244.261719 L 419.089844 158.34375 L 434.074219 158.34375 Z M 434.074219 143.359375 L 419.089844 143.359375 L 419.089844 128.375 L 434.074219 128.375 Z M 434.074219 143.359375 " style=" stroke:none;fill-rule:nonzero;fill:rgb(100%,100%,100%);fill-opacity:1;" />
</g>
</svg>