<svg id="Layer_1" enable-background="new 0 0 256 256" height="512" viewBox="0 0 256 256" width="512" xmlns="http://www.w3.org/2000/svg"><path d="m152.914 44.657-59.634-27.33c-4.134-1.894-9.023-.078-10.917 4.055l-16.713 36.468-5.949 12.98-35.368 77.173c-1.895 4.133-.078 9.022 4.055 10.917l59.634 27.33c4.134 1.895 9.022.079 10.917-4.055l58.03-126.621c1.894-4.134.078-9.023-4.055-10.917z" fill="#87796f"/><path d="m153.539 43.293-59.635-27.33c-4.879-2.237-10.668-.085-12.904 4.794l-16.714 36.468c-.345.753-.014 1.644.739 1.988.754.344 1.644.015 1.989-.738l16.713-36.468c1.547-3.376 5.552-4.862 8.928-3.317l59.634 27.33c3.376 1.548 4.863 5.553 3.316 8.929l-58.03 126.621c-.749 1.635-2.09 2.881-3.777 3.507-1.686.628-3.516.558-5.151-.19l-59.635-27.33c-1.634-.749-2.88-2.091-3.506-3.777-.626-1.687-.559-3.516.19-5.15l35.368-77.173c.345-.753.014-1.644-.739-1.988-.754-.346-1.643-.015-1.989.738l-35.366 77.171c-1.083 2.363-1.181 5.007-.275 7.445s2.706 4.377 5.069 5.459l59.634 27.33c1.293.593 2.669.891 4.05.891 1.144 0 2.291-.204 3.395-.614 2.438-.905 4.377-2.706 5.46-5.069l58.03-126.621c2.236-4.881.085-10.67-4.794-12.906z" fill="#3a312a"/><path d="m202.052 80.515-16.701-21.828-6.793-8.878-16.367-21.392c-2.763-3.611-7.933-4.299-11.544-1.536l-110.62 84.637c-3.611 2.763-4.299 7.933-1.536 11.544l39.861 52.098c2.763 3.611 7.933 4.299 11.544 1.536l110.62-84.637c3.611-2.763 4.299-7.933 1.536-11.544z" fill="#fce8cb"/><path d="m203.243 79.604-23.493-30.707-16.367-21.392c-1.58-2.065-3.87-3.392-6.448-3.734-2.574-.345-5.134.338-7.199 1.918l-110.62 84.637c-2.064 1.58-3.391 3.869-3.734 6.447s.338 5.135 1.917 7.199l39.861 52.098c1.58 2.065 3.87 3.392 6.447 3.734.436.059.872.087 1.305.087 2.125 0 4.18-.692 5.895-2.005l110.62-84.637c2.065-1.58 3.391-3.869 3.734-6.447.343-2.577-.338-5.134-1.918-7.198zm-1.056 6.803c-.237 1.783-1.154 3.367-2.583 4.46l-110.62 84.637c-1.428 1.094-3.198 1.562-4.98 1.327-1.784-.237-3.368-1.155-4.46-2.583l-39.862-52.098c-2.256-2.95-1.693-7.186 1.257-9.441l110.62-84.637c1.187-.908 2.608-1.387 4.078-1.387.299 0 .601.02.903.06 1.783.237 3.368 1.155 4.46 2.583l39.861 52.098c1.093 1.428 1.564 3.197 1.326 4.981z" fill="#3a312a"/><path d="m47.648 26.253c-.974 11.564-13.024 13.39-13.024 13.39 10.347.487 12.925 14.059 12.925 14.059.221-9.678 13.321-14.202 13.321-14.202-9.813-.588-13.222-13.247-13.222-13.247z" fill="#d4db56"/><path d="m60.959 38.002c-8.604-.515-11.832-12.024-11.864-12.141-.191-.703-.859-1.165-1.583-1.102-.725.066-1.298.642-1.359 1.367-.86 10.216-11.313 11.964-11.754 12.032-.763.116-1.313.791-1.273 1.561.04.771.657 1.385 1.427 1.421 9.028.426 11.499 12.719 11.523 12.844.137.711.759 1.217 1.472 1.217.042 0 .084-.002.126-.005.764-.064 1.357-.693 1.375-1.46.195-8.51 12.192-12.778 12.313-12.82.675-.234 1.092-.914.994-1.622-.099-.709-.683-1.25-1.397-1.292zm-13.565 10.347c-1.357-3.131-3.709-6.908-7.587-8.877 2.931-1.405 6.409-3.913 8.202-8.273 1.551 3.071 4.2 6.88 8.334 8.723-3.008 1.639-6.923 4.404-8.949 8.427z" fill="#3a312a"/><path d="m25.95 43.233c-.689 8.179-9.212 9.471-9.212 9.471 7.318.344 9.142 9.944 9.142 9.944.156-6.845 9.422-10.045 9.422-10.045-6.942-.415-9.352-9.37-9.352-9.37z" fill="#d4db56"/><path d="m35.391 51.105c-5.766-.345-7.972-8.186-7.993-8.265-.19-.702-.852-1.169-1.582-1.102-.726.065-1.299.643-1.36 1.368-.579 6.871-7.646 8.066-7.942 8.113-.763.116-1.313.791-1.273 1.561.04.771.657 1.385 1.427 1.421 6.035.284 7.724 8.645 7.739 8.727.135.713.759 1.22 1.472 1.22.042 0 .083-.002.125-.005.765-.063 1.358-.693 1.376-1.461.13-5.709 8.331-8.634 8.412-8.662.677-.234 1.094-.913.996-1.622s-.683-1.251-1.397-1.293zm-9.584 6.795c-.924-1.886-2.34-3.947-4.447-5.279 1.855-1.041 3.697-2.63 4.871-4.917 1.057 1.874 2.654 3.954 4.941 5.224-1.851 1.1-3.989 2.74-5.365 4.972z" fill="#3a312a"/><path d="m25.912 16.576c-.657 8.182-9.175 9.507-9.175 9.507 7.319.316 9.181 9.908 9.181 9.908.129-6.845 9.383-10.082 9.383-10.082-6.944-.388-9.389-9.333-9.389-9.333z" fill="#d4db56"/><path d="m35.384 24.411c-5.741-.321-7.984-8.083-8.025-8.231-.193-.701-.857-1.181-1.587-1.097-.725.067-1.297.646-1.355 1.373-.552 6.873-7.615 8.097-7.911 8.145-.762.119-1.31.796-1.267 1.565.043.771.663 1.383 1.433 1.416 6.036.26 7.757 8.613 7.773 8.695.138.71.76 1.214 1.471 1.214.043 0 .087-.002.131-.006.765-.066 1.356-.698 1.37-1.466.108-5.709 8.297-8.666 8.378-8.694.675-.236 1.09-.917.99-1.626-.1-.708-.687-1.248-1.401-1.288zm-9.558 6.833c-.932-1.883-2.355-3.938-4.468-5.263 1.851-1.049 3.687-2.645 4.851-4.936 1.064 1.87 2.669 3.944 4.962 5.204-1.845 1.109-3.978 2.758-5.345 4.995z" fill="#3a312a"/><path d="m207.377 92.5h-180.045c-6.12 0-11.082 4.961-11.082 11.082v124.76c0 6.12 4.962 11.082 11.082 11.082h180.045c6.121 0 11.082-4.962 11.082-11.082v-124.76c0-6.121-4.962-11.082-11.082-11.082z" fill="#f16c7a"/><path d="m207.377 91h-180.045c-6.938 0-12.582 5.645-12.582 12.582v47.286c0 .828.671 1.5 1.5 1.5s1.5-.672 1.5-1.5v-47.286c0-5.283 4.298-9.582 9.582-9.582h180.045c5.284 0 9.582 4.299 9.582 9.582v124.76c0 5.283-4.298 9.582-9.582 9.582h-180.045c-5.284 0-9.582-4.299-9.582-9.582v-63.21c0-.828-.671-1.5-1.5-1.5s-1.5.672-1.5 1.5v63.21c0 6.938 5.644 12.582 12.582 12.582h180.045c6.938 0 12.582-5.645 12.582-12.582v-124.76c0-6.937-5.644-12.582-12.582-12.582z" fill="#3a312a"/><path d="m230.615 138.462h-40.365c-15.188 0-27.5 12.312-27.5 27.5s12.312 27.5 27.5 27.5h40.365c5.045 0 9.135-4.09 9.135-9.136v-36.729c0-5.045-4.09-9.135-9.135-9.135z" fill="#d4db56"/><path d="m230.615 136.962h-40.365c-15.991 0-29 13.01-29 29s13.009 29 29 29h40.365c5.864 0 10.635-4.771 10.635-10.636v-36.729c0-5.865-4.771-10.635-10.635-10.635zm7.635 47.364c0 4.21-3.425 7.636-7.635 7.636h-40.365c-14.336 0-26-11.663-26-26s11.664-26 26-26h40.365c4.21 0 7.635 3.425 7.635 7.635z" fill="#3a312a"/><circle cx="189.75" cy="165.962" fill="#fae6ca" r="10"/><path d="m189.75 154.462c-6.341 0-11.5 5.159-11.5 11.5s5.159 11.5 11.5 11.5 11.5-5.159 11.5-11.5-5.159-11.5-11.5-11.5zm0 20c-4.687 0-8.5-3.813-8.5-8.5s3.813-8.5 8.5-8.5 8.5 3.813 8.5 8.5-3.813 8.5-8.5 8.5z" fill="#3a312a"/><ellipse cx="143.67" cy="101.371" fill="#d6df58" rx="36.371" ry="36.371" transform="matrix(.201 -.98 .98 .201 15.482 221.724)"/><path d="m143.67 63.5c-20.882 0-37.871 16.989-37.871 37.871s16.989 37.87 37.871 37.87 37.871-16.988 37.871-37.87-16.989-37.871-37.871-37.871zm0 72.741c-19.227 0-34.871-15.643-34.871-34.87s15.643-34.871 34.871-34.871 34.871 15.644 34.871 34.871-15.644 34.87-34.871 34.87z" fill="#3a312a"/><path d="m147.994 97.258c-5.297-1.994-7.479-3.302-7.479-5.359 0-1.744 1.309-3.489 5.36-3.489 4.486 0 7.353 1.433 8.974 2.119l1.807-7.041c-2.057-.998-4.861-1.871-9.036-2.057v-5.484h-6.107v5.92c-6.668 1.309-10.532 5.608-10.532 11.093 0 6.045 4.549 9.162 11.217 11.404 4.612 1.558 6.606 3.055 6.606 5.421 0 2.494-2.431 3.864-5.982 3.864-4.051 0-7.727-1.309-10.345-2.742l-1.87 7.291c2.368 1.371 6.419 2.492 10.594 2.68v5.92h6.107v-6.357c7.167-1.245 11.093-5.981 11.093-11.528 0-5.61-2.992-9.038-10.407-11.655z" fill="#87796f"/><path d="m148.522 95.854c-4.683-1.762-6.507-2.87-6.507-3.955 0-1.73 2.418-1.989 3.859-1.989 3.784 0 6.275 1.083 7.923 1.8l.465.2c.403.172.859.158 1.25-.036.392-.194.679-.549.788-.972l1.808-7.042c.177-.691-.157-1.412-.799-1.723-2.364-1.146-5.055-1.841-8.19-2.112v-4.079c0-.828-.671-1.5-1.5-1.5h-6.107c-.829 0-1.5.672-1.5 1.5v4.724c-6.53 1.699-10.531 6.321-10.531 12.289 0 7.719 6.541 10.909 12.236 12.825 4.91 1.659 5.586 2.903 5.586 4 0 2.25-3.734 2.364-4.482 2.364-4.31 0-7.88-1.603-9.625-2.557-.407-.224-.894-.245-1.317-.061-.425.185-.741.555-.856 1.004l-1.869 7.291c-.167.65.12 1.334.702 1.671 2.433 1.407 6.107 2.434 9.844 2.78v4.52c0 .828.671 1.5 1.5 1.5h6.107c.829 0 1.5-.672 1.5-1.5v-5.135c6.782-1.627 11.093-6.523 11.093-12.75.001-6.338-3.411-10.245-11.378-13.057zm-1.471 23.108c-.719.125-1.243.748-1.243 1.478v4.856h-3.107v-4.42c0-.803-.631-1.463-1.433-1.498-3.212-.144-6.565-.896-8.91-1.967l1.113-4.341c2.23.996 5.53 2.077 9.352 2.077 4.545 0 7.482-2.105 7.482-5.364 0-3.748-3.665-5.504-7.627-6.843-7.147-2.404-10.195-5.39-10.195-9.982 0-4.879 3.484-8.476 9.32-9.621.704-.138 1.211-.755 1.211-1.472v-4.42h3.107v3.984c0 .803.632 1.463 1.434 1.498 2.827.126 5.239.592 7.333 1.419l-1.057 4.118c-1.8-.724-4.404-1.556-7.955-1.556-5.058 0-6.859 2.577-6.859 4.989 0 3.32 3.663 4.962 8.48 6.773 7.806 2.756 9.406 6.086 9.406 10.239-.002 5.146-3.776 8.997-9.852 10.053z" fill="#3a312a"/><g fill="#d24e5c"><path d="m207.38 94h-15c5.28 0 9.58 4.3 9.58 9.58v33.38h15v-33.38c0-5.28-4.3-9.58-9.58-9.58z"/><path d="m201.96 194.96v33.38c0 5.28-4.3 9.58-9.58 9.58h15c5.28 0 9.58-4.3 9.58-9.58v-33.38z"/></g></svg>