<?xml version="1.0"?>
<svg xmlns="http://www.w3.org/2000/svg" viewBox="0 0 512 512" width="512px" height="512px" class="hovered-paths"><g><path d="m336 336c-5.519531 0-10 4.480469-10 10s4.480469 10 10 10 10-4.480469 10-10-4.480469-10-10-10zm0 0" data-original="#000000" class="hovered-path active-path" data-old_color="#000000" fill="#2E9DFA"/><path d="m200 326c-5.515625 0-10-4.484375-10-10s4.484375-10 10-10c3.542969 0 7.28125 1.808594 10.816406 5.226562 3.96875 3.839844 10.300782 3.738282 14.140625-.234374 3.839844-3.96875 3.734375-10.296876-.234375-14.136719-5.074218-4.914063-10.152344-7.691407-14.722656-9.207031v-11.648438c0-5.523438-4.476562-10-10-10s-10 4.476562-10 10v11.71875c-11.640625 4.128906-20 15.246094-20 28.28125 0 16.542969 13.457031 30 30 30 5.511719 0 10 4.484375 10 10s-4.488281 10-10 10c-4.273438 0-8.886719-2.6875-12.988281-7.566406-3.550781-4.226563-9.859375-4.773438-14.085938-1.21875-4.230469 3.554687-4.773437 9.863281-1.222656 14.089844 5.347656 6.359374 11.632813 10.789062 18.296875 13.023437v11.671875c0 5.523438 4.476562 10 10 10s10-4.476562 10-10v-11.71875c11.636719-4.128906 20-15.246094 20-28.28125 0-16.542969-13.457031-30-30-30zm0 0" data-original="#000000" class="hovered-path active-path" data-old_color="#000000" fill="#2E9DFA"/><path d="m120 166c5.523438 0 10-4.476562 10-10v-40c0-5.523438-4.476562-10-10-10s-10 4.476562-10 10v40c0 5.523438 4.476562 10 10 10zm0 0" data-original="#000000" class="hovered-path active-path" data-old_color="#000000" fill="#2E9DFA"/><path d="m472 236v-80c0-27.570312-22.429688-50-50-50h-56v-76c0-16.542969-13.457031-30-30-30h-186c-16.542969 0-30 13.457031-30 30v36h-30c-16.542969 0-30 13.457031-30 30v10h-10c-27.570312 0-50 22.429688-50 50v306c0 27.570312 22.429688 50 50 50h306c24.144531 0 44.347656-17.203125 48.992188-40h17.007812c27.570312 0 50-22.429688 50-50v-26h10c16.542969 0 30-13.457031 30-30v-90c0-22.054688-17.945312-40-40-40zm20 40c0 11.046875-8.953125 20-20 20v-40c11.027344 0 20 8.972656 20 20zm-70-150c16.542969 0 30 13.457031 30 30v140h-46v-60c0-24.144531-17.203125-44.347656-40-48.992188v-61.007812zm-282-96c0-5.515625 4.484375-10 10-10h186c5.515625 0 10 4.484375 10 10v156h-46v-90c0-16.542969-13.457031-30-30-30h-130zm100 156v-100h30c5.515625 0 10 4.484375 10 10v90zm-60 0v-100h40v100zm-100-90c0-5.515625 4.484375-10 10-10h70v100h-80zm-30 30h10v60h-7.859375c-16.527344 0-32.140625-11.96875-32.140625-30 0-16.542969 13.457031-30 30-30zm306 366h-306c-16.542969 0-30-13.457031-30-30v-266.617188c8.941406 6.660157 20.171875 10.617188 32.140625 10.617188h303.859375c16.542969 0 30 13.457031 30 30v60h-70c-16.542969 0-30 13.457031-30 30v40c0 16.542969 13.457031 30 30 30h70v66c0 16.542969-13.457031 30-30 30zm96-70c0 16.542969-13.457031 30-30 30h-16v-56h46zm30-46h-166c-5.515625 0-10-4.484375-10-10v-40c0-5.515625 4.484375-10 10-10h156c7.136719 0 13.984375-1.867188 20-5.355469v55.355469c0 5.515625-4.484375 10-10 10zm0 0" data-original="#000000" class="hovered-path active-path" data-old_color="#000000" fill="#2E9DFA"/><path d="m422 336h-46c-5.523438 0-10 4.476562-10 10s4.476562 10 10 10h46c5.523438 0 10-4.476562 10-10s-4.476562-10-10-10zm0 0" data-original="#000000" class="hovered-path active-path" data-old_color="#000000" fill="#2E9DFA"/></g> </svg>
